<?xml version="1.0" encoding="UTF-8" standalone="no"?><!-- Generator: Gravit.io --><svg xmlns="http://www.w3.org/2000/svg" xmlns:xlink="http://www.w3.org/1999/xlink" style="isolation:isolate" viewBox="0 0 500 1150" width="500pt" height="1150pt"><defs><clipPath id="_clipPath_EUBEVqnzdVqpnkQ95uU8z5orcXFDNPnM"><rect width="500" height="1150"/></clipPath></defs><g clip-path="url(#_clipPath_EUBEVqnzdVqpnkQ95uU8z5orcXFDNPnM)"><text transform="matrix(1,0,0,1,42,51.377)" style="font-family:'Open Sans';font-weight:400;font-size:20px;font-style:normal;fill:#000000;stroke:none;">114 мест</text><text transform="matrix(1,0,0,1,301.5,48.759)" style="font-family:'Noto Sans';font-weight:400;font-size:20px;font-style:normal;fill:#000000;stroke:none;">BOEING 737-500</text><g><g><g><path d=" M 200.711 651.778 C 200.711 651.217 200.256 650.762 199.694 650.762 L 180.45 650.762 C 179.89 650.762 179.434 651.217 179.434 651.778 L 179.434 671.022 C 179.434 671.583 179.89 672.038 180.45 672.038 L 199.694 672.038 C 200.256 672.038 200.711 671.583 200.711 671.022 L 200.711 651.778 Z " fill-rule="evenodd" fill="rgb(195,207,217)"/><path d=" M 230.498 651.778 C 230.498 651.217 230.043 650.762 229.481 650.762 L 210.238 650.762 C 209.677 650.762 209.222 651.217 209.222 651.778 L 209.222 671.022 C 209.222 671.583 209.677 672.038 210.238 672.038 L 229.481 672.038 C 230.043 672.038 230.498 671.583 230.498 671.022 L 230.498 651.778 Z " fill-rule="evenodd" fill="rgb(195,207,217)"/><path d=" M 170.924 651.778 C 170.924 651.217 170.468 650.762 169.907 650.762 L 150.663 650.762 C 150.102 650.762 149.647 651.217 149.647 651.778 L 149.647 671.022 C 149.647 671.583 150.102 672.038 150.663 672.038 L 169.907 672.038 C 170.468 672.038 170.924 671.583 170.924 671.022 L 170.924 651.778 Z " fill-rule="evenodd" fill="rgb(195,207,217)"/><path d=" M 170.924 651.778 C 170.924 651.217 170.468 650.762 169.907 650.762 L 150.663 650.762 C 150.102 650.762 149.647 651.217 149.647 651.778 L 149.647 671.022 C 149.647 671.583 150.102 672.038 150.663 672.038 L 169.907 672.038 C 170.468 672.038 170.924 671.583 170.924 671.022 L 170.924 651.778 Z " fill-rule="evenodd" fill="rgb(195,207,217)"/><path d=" M 200.711 681.566 C 200.711 681.005 200.256 680.549 199.694 680.549 L 180.45 680.549 C 179.89 680.549 179.434 681.005 179.434 681.566 L 179.434 700.809 C 179.434 701.37 179.89 701.826 180.45 701.826 L 199.694 701.826 C 200.256 701.826 200.711 701.37 200.711 700.809 L 200.711 681.566 Z " fill-rule="evenodd" fill="rgb(195,207,217)"/><path d=" M 230.498 681.566 C 230.498 681.005 230.043 680.549 229.481 680.549 L 210.238 680.549 C 209.677 680.549 209.222 681.005 209.222 681.566 L 209.222 700.809 C 209.222 701.37 209.677 701.826 210.238 701.826 L 229.481 701.826 C 230.043 701.826 230.498 701.37 230.498 700.809 L 230.498 681.566 Z " fill-rule="evenodd" fill="rgb(195,207,217)"/><path d=" M 170.924 681.566 C 170.924 681.005 170.468 680.549 169.907 680.549 L 150.663 680.549 C 150.102 680.549 149.647 681.005 149.647 681.566 L 149.647 700.809 C 149.647 701.37 150.102 701.826 150.663 701.826 L 169.907 701.826 C 170.468 701.826 170.924 701.37 170.924 700.809 L 170.924 681.566 Z " fill-rule="evenodd" fill="rgb(195,207,217)"/><path d=" M 170.924 681.566 C 170.924 681.005 170.468 680.549 169.907 680.549 L 150.663 680.549 C 150.102 680.549 149.647 681.005 149.647 681.566 L 149.647 700.809 C 149.647 701.37 150.102 701.826 150.663 701.826 L 169.907 701.826 C 170.468 701.826 170.924 701.37 170.924 700.809 L 170.924 681.566 Z " fill-rule="evenodd" fill="rgb(195,207,217)"/><path d=" M 200.711 715.608 C 200.711 715.047 200.256 714.592 199.694 714.592 L 180.45 714.592 C 179.89 714.592 179.434 715.047 179.434 715.608 L 179.434 734.852 C 179.434 735.413 179.89 735.868 180.45 735.868 L 199.694 735.868 C 200.256 735.868 200.711 735.413 200.711 734.852 L 200.711 715.608 Z " fill-rule="evenodd" fill="rgb(195,207,217)"/><path d=" M 230.498 715.608 C 230.498 715.047 230.043 714.592 229.481 714.592 L 210.238 714.592 C 209.677 714.592 209.222 715.047 209.222 715.608 L 209.222 734.852 C 209.222 735.413 209.677 735.868 210.238 735.868 L 229.481 735.868 C 230.043 735.868 230.498 735.413 230.498 734.852 L 230.498 715.608 Z " fill-rule="evenodd" fill="rgb(195,207,217)"/><path d=" M 170.924 715.608 C 170.924 715.047 170.468 714.592 169.907 714.592 L 150.663 714.592 C 150.102 714.592 149.647 715.047 149.647 715.608 L 149.647 734.852 C 149.647 735.413 150.102 735.868 150.663 735.868 L 169.907 735.868 C 170.468 735.868 170.924 735.413 170.924 734.852 L 170.924 715.608 Z " fill-rule="evenodd" fill="rgb(195,207,217)"/><path d=" M 170.924 715.608 C 170.924 715.047 170.468 714.592 169.907 714.592 L 150.663 714.592 C 150.102 714.592 149.647 715.047 149.647 715.608 L 149.647 734.852 C 149.647 735.413 150.102 735.868 150.663 735.868 L 169.907 735.868 C 170.468 735.868 170.924 735.413 170.924 734.852 L 170.924 715.608 Z " fill-rule="evenodd" fill="rgb(195,207,217)"/><path d=" M 200.711 745.395 C 200.711 744.835 200.256 744.379 199.694 744.379 L 180.45 744.379 C 179.89 744.379 179.434 744.835 179.434 745.395 L 179.434 764.639 C 179.434 765.2 179.89 765.655 180.45 765.655 L 199.694 765.655 C 200.256 765.655 200.711 765.2 200.711 764.639 L 200.711 745.395 Z " fill-rule="evenodd" fill="rgb(195,207,217)"/><path d=" M 230.498 745.395 C 230.498 744.835 230.043 744.379 229.481 744.379 L 210.238 744.379 C 209.677 744.379 209.222 744.835 209.222 745.395 L 209.222 764.639 C 209.222 765.2 209.677 765.655 210.238 765.655 L 229.481 765.655 C 230.043 765.655 230.498 765.2 230.498 764.639 L 230.498 745.395 Z " fill-rule="evenodd" fill="rgb(195,207,217)"/><path d=" M 170.924 745.395 C 170.924 744.835 170.468 744.379 169.907 744.379 L 150.663 744.379 C 150.102 744.379 149.647 744.835 149.647 745.395 L 149.647 764.639 C 149.647 765.2 150.102 765.655 150.663 765.655 L 169.907 765.655 C 170.468 765.655 170.924 765.2 170.924 764.639 L 170.924 745.395 Z " fill-rule="evenodd" fill="rgb(195,207,217)"/><path d=" M 170.924 745.395 C 170.924 744.835 170.468 744.379 169.907 744.379 L 150.663 744.379 C 150.102 744.379 149.647 744.835 149.647 745.395 L 149.647 764.639 C 149.647 765.2 150.102 765.655 150.663 765.655 L 169.907 765.655 C 170.468 765.655 170.924 765.2 170.924 764.639 L 170.924 745.395 Z " fill-rule="evenodd" fill="rgb(195,207,217)"/><path d=" M 200.711 775.183 C 200.711 774.622 200.256 774.166 199.694 774.166 L 180.45 774.166 C 179.89 774.166 179.434 774.622 179.434 775.183 L 179.434 794.426 C 179.434 794.987 179.89 795.443 180.45 795.443 L 199.694 795.443 C 200.256 795.443 200.711 794.987 200.711 794.426 L 200.711 775.183 Z " fill-rule="evenodd" fill="rgb(195,207,217)"/><path d=" M 230.498 775.183 C 230.498 774.622 230.043 774.166 229.481 774.166 L 210.238 774.166 C 209.677 774.166 209.222 774.622 209.222 775.183 L 209.222 794.426 C 209.222 794.987 209.677 795.443 210.238 795.443 L 229.481 795.443 C 230.043 795.443 230.498 794.987 230.498 794.426 L 230.498 775.183 Z " fill-rule="evenodd" fill="rgb(195,207,217)"/><path d=" M 170.924 775.183 C 170.924 774.622 170.468 774.166 169.907 774.166 L 150.663 774.166 C 150.102 774.166 149.647 774.622 149.647 775.183 L 149.647 794.426 C 149.647 794.987 150.102 795.443 150.663 795.443 L 169.907 795.443 C 170.468 795.443 170.924 794.987 170.924 794.426 L 170.924 775.183 Z " fill-rule="evenodd" fill="rgb(195,207,217)"/><path d=" M 170.924 775.183 C 170.924 774.622 170.468 774.166 169.907 774.166 L 150.663 774.166 C 150.102 774.166 149.647 774.622 149.647 775.183 L 149.647 794.426 C 149.647 794.987 150.102 795.443 150.663 795.443 L 169.907 795.443 C 170.468 795.443 170.924 794.987 170.924 794.426 L 170.924 775.183 Z " fill-rule="evenodd" fill="rgb(195,207,217)"/><path d=" M 200.711 804.97 C 200.711 804.409 200.256 803.954 199.694 803.954 L 180.45 803.954 C 179.89 803.954 179.434 804.409 179.434 804.97 L 179.434 824.214 C 179.434 824.775 179.89 825.23 180.45 825.23 L 199.694 825.23 C 200.256 825.23 200.711 824.775 200.711 824.214 L 200.711 804.97 Z " fill-rule="evenodd" fill="rgb(195,207,217)"/><path d=" M 230.498 804.97 C 230.498 804.409 230.043 803.954 229.481 803.954 L 210.238 803.954 C 209.677 803.954 209.222 804.409 209.222 804.97 L 209.222 824.214 C 209.222 824.775 209.677 825.23 210.238 825.23 L 229.481 825.23 C 230.043 825.23 230.498 824.775 230.498 824.214 L 230.498 804.97 Z " fill-rule="evenodd" fill="rgb(195,207,217)"/><path d=" M 170.924 804.97 C 170.924 804.409 170.468 803.954 169.907 803.954 L 150.663 803.954 C 150.102 803.954 149.647 804.409 149.647 804.97 L 149.647 824.214 C 149.647 824.775 150.102 825.23 150.663 825.23 L 169.907 825.23 C 170.468 825.23 170.924 824.775 170.924 824.214 L 170.924 804.97 Z " fill-rule="evenodd" fill="rgb(195,207,217)"/><path d=" M 170.924 804.97 C 170.924 804.409 170.468 803.954 169.907 803.954 L 150.663 803.954 C 150.102 803.954 149.647 804.409 149.647 804.97 L 149.647 824.214 C 149.647 824.775 150.102 825.23 150.663 825.23 L 169.907 825.23 C 170.468 825.23 170.924 824.775 170.924 824.214 L 170.924 804.97 Z " fill-rule="evenodd" fill="rgb(195,207,217)"/><path d=" M 200.711 834.757 C 200.711 834.196 200.256 833.741 199.694 833.741 L 180.45 833.741 C 179.89 833.741 179.434 834.196 179.434 834.757 L 179.434 854.001 C 179.434 854.562 179.89 855.017 180.45 855.017 L 199.694 855.017 C 200.256 855.017 200.711 854.562 200.711 854.001 L 200.711 834.757 Z " fill-rule="evenodd" fill="rgb(195,207,217)"/><path d=" M 230.498 834.757 C 230.498 834.196 230.043 833.741 229.481 833.741 L 210.238 833.741 C 209.677 833.741 209.222 834.196 209.222 834.757 L 209.222 854.001 C 209.222 854.562 209.677 855.017 210.238 855.017 L 229.481 855.017 C 230.043 855.017 230.498 854.562 230.498 854.001 L 230.498 834.757 Z " fill-rule="evenodd" fill="rgb(195,207,217)"/><path d=" M 170.924 834.757 C 170.924 834.196 170.468 833.741 169.907 833.741 L 150.663 833.741 C 150.102 833.741 149.647 834.196 149.647 834.757 L 149.647 854.001 C 149.647 854.562 150.102 855.017 150.663 855.017 L 169.907 855.017 C 170.468 855.017 170.924 854.562 170.924 854.001 L 170.924 834.757 Z " fill-rule="evenodd" fill="rgb(195,207,217)"/><path d=" M 170.924 834.757 C 170.924 834.196 170.468 833.741 169.907 833.741 L 150.663 833.741 C 150.102 833.741 149.647 834.196 149.647 834.757 L 149.647 854.001 C 149.647 854.562 150.102 855.017 150.663 855.017 L 169.907 855.017 C 170.468 855.017 170.924 854.562 170.924 854.001 L 170.924 834.757 Z " fill-rule="evenodd" fill="rgb(195,207,217)"/><path d=" M 200.711 864.544 C 200.711 863.983 200.256 863.528 199.694 863.528 L 180.45 863.528 C 179.89 863.528 179.434 863.983 179.434 864.544 L 179.434 883.788 C 179.434 884.349 179.89 884.804 180.45 884.804 L 199.694 884.804 C 200.256 884.804 200.711 884.349 200.711 883.788 L 200.711 864.544 Z " fill-rule="evenodd" fill="rgb(195,207,217)"/><path d=" M 230.498 864.544 C 230.498 863.983 230.043 863.528 229.481 863.528 L 210.238 863.528 C 209.677 863.528 209.222 863.983 209.222 864.544 L 209.222 883.788 C 209.222 884.349 209.677 884.804 210.238 884.804 L 229.481 884.804 C 230.043 884.804 230.498 884.349 230.498 883.788 L 230.498 864.544 Z " fill-rule="evenodd" fill="rgb(195,207,217)"/><path d=" M 170.924 864.544 C 170.924 863.983 170.468 863.528 169.907 863.528 L 150.663 863.528 C 150.102 863.528 149.647 863.983 149.647 864.544 L 149.647 883.788 C 149.647 884.349 150.102 884.804 150.663 884.804 L 169.907 884.804 C 170.468 884.804 170.924 884.349 170.924 883.788 L 170.924 864.544 Z " fill-rule="evenodd" fill="rgb(195,207,217)"/><path d=" M 170.924 864.544 C 170.924 863.983 170.468 863.528 169.907 863.528 L 150.663 863.528 C 150.102 863.528 149.647 863.983 149.647 864.544 L 149.647 883.788 C 149.647 884.349 150.102 884.804 150.663 884.804 L 169.907 884.804 C 170.468 884.804 170.924 884.349 170.924 883.788 L 170.924 864.544 Z " fill-rule="evenodd" fill="rgb(195,207,217)"/><path d=" M 319.86 651.778 C 319.86 651.217 319.405 650.762 318.843 650.762 L 299.599 650.762 C 299.039 650.762 298.583 651.217 298.583 651.778 L 298.583 671.022 C 298.583 671.583 299.039 672.038 299.599 672.038 L 318.843 672.038 C 319.405 672.038 319.86 671.583 319.86 671.022 L 319.86 651.778 Z " fill-rule="evenodd" fill="rgb(195,207,217)"/><path d=" M 349.647 651.778 C 349.647 651.217 349.192 650.762 348.63 650.762 L 329.387 650.762 C 328.826 650.762 328.37 651.217 328.37 651.778 L 328.37 671.022 C 328.37 671.583 328.826 672.038 329.387 672.038 L 348.63 672.038 C 349.192 672.038 349.647 671.583 349.647 671.022 L 349.647 651.778 Z " fill-rule="evenodd" fill="rgb(195,207,217)"/><path d=" M 290.073 651.778 C 290.073 651.217 289.617 650.762 289.056 650.762 L 269.812 650.762 C 269.251 650.762 268.796 651.217 268.796 651.778 L 268.796 671.022 C 268.796 671.583 269.251 672.038 269.812 672.038 L 289.056 672.038 C 289.617 672.038 290.073 671.583 290.073 671.022 L 290.073 651.778 Z " fill-rule="evenodd" fill="rgb(195,207,217)"/><path d=" M 290.073 651.778 C 290.073 651.217 289.617 650.762 289.056 650.762 L 269.812 650.762 C 269.251 650.762 268.796 651.217 268.796 651.778 L 268.796 671.022 C 268.796 671.583 269.251 672.038 269.812 672.038 L 289.056 672.038 C 289.617 672.038 290.073 671.583 290.073 671.022 L 290.073 651.778 Z " fill-rule="evenodd" fill="rgb(195,207,217)"/><path d=" M 319.86 681.566 C 319.86 681.005 319.405 680.549 318.843 680.549 L 299.599 680.549 C 299.039 680.549 298.583 681.005 298.583 681.566 L 298.583 700.809 C 298.583 701.37 299.039 701.826 299.599 701.826 L 318.843 701.826 C 319.405 701.826 319.86 701.37 319.86 700.809 L 319.86 681.566 Z " fill-rule="evenodd" fill="rgb(195,207,217)"/><path d=" M 349.647 681.566 C 349.647 681.005 349.192 680.549 348.63 680.549 L 329.387 680.549 C 328.826 680.549 328.37 681.005 328.37 681.566 L 328.37 700.809 C 328.37 701.37 328.826 701.826 329.387 701.826 L 348.63 701.826 C 349.192 701.826 349.647 701.37 349.647 700.809 L 349.647 681.566 Z " fill-rule="evenodd" fill="rgb(195,207,217)"/><path d=" M 290.073 681.566 C 290.073 681.005 289.617 680.549 289.056 680.549 L 269.812 680.549 C 269.251 680.549 268.796 681.005 268.796 681.566 L 268.796 700.809 C 268.796 701.37 269.251 701.826 269.812 701.826 L 289.056 701.826 C 289.617 701.826 290.073 701.37 290.073 700.809 L 290.073 681.566 Z " fill-rule="evenodd" fill="rgb(195,207,217)"/><path d=" M 290.073 681.566 C 290.073 681.005 289.617 680.549 289.056 680.549 L 269.812 680.549 C 269.251 680.549 268.796 681.005 268.796 681.566 L 268.796 700.809 C 268.796 701.37 269.251 701.826 269.812 701.826 L 289.056 701.826 C 289.617 701.826 290.073 701.37 290.073 700.809 L 290.073 681.566 Z " fill-rule="evenodd" fill="rgb(195,207,217)"/><path d=" M 319.86 715.608 C 319.86 715.047 319.405 714.592 318.843 714.592 L 299.599 714.592 C 299.039 714.592 298.583 715.047 298.583 715.608 L 298.583 734.852 C 298.583 735.413 299.039 735.868 299.599 735.868 L 318.843 735.868 C 319.405 735.868 319.86 735.413 319.86 734.852 L 319.86 715.608 Z " fill-rule="evenodd" fill="rgb(195,207,217)"/><path d=" M 349.647 715.608 C 349.647 715.047 349.192 714.592 348.63 714.592 L 329.387 714.592 C 328.826 714.592 328.37 715.047 328.37 715.608 L 328.37 734.852 C 328.37 735.413 328.826 735.868 329.387 735.868 L 348.63 735.868 C 349.192 735.868 349.647 735.413 349.647 734.852 L 349.647 715.608 Z " fill-rule="evenodd" fill="rgb(195,207,217)"/><path d=" M 290.073 715.608 C 290.073 715.047 289.617 714.592 289.056 714.592 L 269.812 714.592 C 269.251 714.592 268.796 715.047 268.796 715.608 L 268.796 734.852 C 268.796 735.413 269.251 735.868 269.812 735.868 L 289.056 735.868 C 289.617 735.868 290.073 735.413 290.073 734.852 L 290.073 715.608 Z " fill-rule="evenodd" fill="rgb(195,207,217)"/><path d=" M 290.073 715.608 C 290.073 715.047 289.617 714.592 289.056 714.592 L 269.812 714.592 C 269.251 714.592 268.796 715.047 268.796 715.608 L 268.796 734.852 C 268.796 735.413 269.251 735.868 269.812 735.868 L 289.056 735.868 C 289.617 735.868 290.073 735.413 290.073 734.852 L 290.073 715.608 Z " fill-rule="evenodd" fill="rgb(195,207,217)"/><path d=" M 319.86 745.395 C 319.86 744.835 319.405 744.379 318.843 744.379 L 299.599 744.379 C 299.039 744.379 298.583 744.835 298.583 745.395 L 298.583 764.639 C 298.583 765.2 299.039 765.655 299.599 765.655 L 318.843 765.655 C 319.405 765.655 319.86 765.2 319.86 764.639 L 319.86 745.395 Z " fill-rule="evenodd" fill="rgb(195,207,217)"/><path d=" M 349.647 745.395 C 349.647 744.835 349.192 744.379 348.63 744.379 L 329.387 744.379 C 328.826 744.379 328.37 744.835 328.37 745.395 L 328.37 764.639 C 328.37 765.2 328.826 765.655 329.387 765.655 L 348.63 765.655 C 349.192 765.655 349.647 765.2 349.647 764.639 L 349.647 745.395 Z " fill-rule="evenodd" fill="rgb(195,207,217)"/><path d=" M 290.073 745.395 C 290.073 744.835 289.617 744.379 289.056 744.379 L 269.812 744.379 C 269.251 744.379 268.796 744.835 268.796 745.395 L 268.796 764.639 C 268.796 765.2 269.251 765.655 269.812 765.655 L 289.056 765.655 C 289.617 765.655 290.073 765.2 290.073 764.639 L 290.073 745.395 Z " fill-rule="evenodd" fill="rgb(195,207,217)"/><path d=" M 290.073 745.395 C 290.073 744.835 289.617 744.379 289.056 744.379 L 269.812 744.379 C 269.251 744.379 268.796 744.835 268.796 745.395 L 268.796 764.639 C 268.796 765.2 269.251 765.655 269.812 765.655 L 289.056 765.655 C 289.617 765.655 290.073 765.2 290.073 764.639 L 290.073 745.395 Z " fill-rule="evenodd" fill="rgb(195,207,217)"/><path d=" M 319.86 775.183 C 319.86 774.622 319.405 774.166 318.843 774.166 L 299.599 774.166 C 299.039 774.166 298.583 774.622 298.583 775.183 L 298.583 794.426 C 298.583 794.987 299.039 795.443 299.599 795.443 L 318.843 795.443 C 319.405 795.443 319.86 794.987 319.86 794.426 L 319.86 775.183 Z " fill-rule="evenodd" fill="rgb(195,207,217)"/><path d=" M 349.647 775.183 C 349.647 774.622 349.192 774.166 348.63 774.166 L 329.387 774.166 C 328.826 774.166 328.37 774.622 328.37 775.183 L 328.37 794.426 C 328.37 794.987 328.826 795.443 329.387 795.443 L 348.63 795.443 C 349.192 795.443 349.647 794.987 349.647 794.426 L 349.647 775.183 Z " fill-rule="evenodd" fill="rgb(195,207,217)"/><path d=" M 290.073 775.183 C 290.073 774.622 289.617 774.166 289.056 774.166 L 269.812 774.166 C 269.251 774.166 268.796 774.622 268.796 775.183 L 268.796 794.426 C 268.796 794.987 269.251 795.443 269.812 795.443 L 289.056 795.443 C 289.617 795.443 290.073 794.987 290.073 794.426 L 290.073 775.183 Z " fill-rule="evenodd" fill="rgb(195,207,217)"/><path d=" M 290.073 775.183 C 290.073 774.622 289.617 774.166 289.056 774.166 L 269.812 774.166 C 269.251 774.166 268.796 774.622 268.796 775.183 L 268.796 794.426 C 268.796 794.987 269.251 795.443 269.812 795.443 L 289.056 795.443 C 289.617 795.443 290.073 794.987 290.073 794.426 L 290.073 775.183 Z " fill-rule="evenodd" fill="rgb(195,207,217)"/><path d=" M 319.86 804.97 C 319.86 804.409 319.405 803.954 318.843 803.954 L 299.599 803.954 C 299.039 803.954 298.583 804.409 298.583 804.97 L 298.583 824.214 C 298.583 824.775 299.039 825.23 299.599 825.23 L 318.843 825.23 C 319.405 825.23 319.86 824.775 319.86 824.214 L 319.86 804.97 Z " fill-rule="evenodd" fill="rgb(195,207,217)"/><path d=" M 349.647 804.97 C 349.647 804.409 349.192 803.954 348.63 803.954 L 329.387 803.954 C 328.826 803.954 328.37 804.409 328.37 804.97 L 328.37 824.214 C 328.37 824.775 328.826 825.23 329.387 825.23 L 348.63 825.23 C 349.192 825.23 349.647 824.775 349.647 824.214 L 349.647 804.97 Z " fill-rule="evenodd" fill="rgb(195,207,217)"/><path d=" M 290.073 804.97 C 290.073 804.409 289.617 803.954 289.056 803.954 L 269.812 803.954 C 269.251 803.954 268.796 804.409 268.796 804.97 L 268.796 824.214 C 268.796 824.775 269.251 825.23 269.812 825.23 L 289.056 825.23 C 289.617 825.23 290.073 824.775 290.073 824.214 L 290.073 804.97 Z " fill-rule="evenodd" fill="rgb(195,207,217)"/><path d=" M 290.073 804.97 C 290.073 804.409 289.617 803.954 289.056 803.954 L 269.812 803.954 C 269.251 803.954 268.796 804.409 268.796 804.97 L 268.796 824.214 C 268.796 824.775 269.251 825.23 269.812 825.23 L 289.056 825.23 C 289.617 825.23 290.073 824.775 290.073 824.214 L 290.073 804.97 Z " fill-rule="evenodd" fill="rgb(195,207,217)"/><path d=" M 319.86 834.757 C 319.86 834.196 319.405 833.741 318.843 833.741 L 299.599 833.741 C 299.039 833.741 298.583 834.196 298.583 834.757 L 298.583 854.001 C 298.583 854.562 299.039 855.017 299.599 855.017 L 318.843 855.017 C 319.405 855.017 319.86 854.562 319.86 854.001 L 319.86 834.757 Z " fill-rule="evenodd" fill="rgb(195,207,217)"/><path d=" M 349.647 834.757 C 349.647 834.196 349.192 833.741 348.63 833.741 L 329.387 833.741 C 328.826 833.741 328.37 834.196 328.37 834.757 L 328.37 854.001 C 328.37 854.562 328.826 855.017 329.387 855.017 L 348.63 855.017 C 349.192 855.017 349.647 854.562 349.647 854.001 L 349.647 834.757 Z " fill-rule="evenodd" fill="rgb(195,207,217)"/><path d=" M 290.073 834.757 C 290.073 834.196 289.617 833.741 289.056 833.741 L 269.812 833.741 C 269.251 833.741 268.796 834.196 268.796 834.757 L 268.796 854.001 C 268.796 854.562 269.251 855.017 269.812 855.017 L 289.056 855.017 C 289.617 855.017 290.073 854.562 290.073 854.001 L 290.073 834.757 Z " fill-rule="evenodd" fill="rgb(195,207,217)"/><path d=" M 290.073 834.757 C 290.073 834.196 289.617 833.741 289.056 833.741 L 269.812 833.741 C 269.251 833.741 268.796 834.196 268.796 834.757 L 268.796 854.001 C 268.796 854.562 269.251 855.017 269.812 855.017 L 289.056 855.017 C 289.617 855.017 290.073 854.562 290.073 854.001 L 290.073 834.757 Z " fill-rule="evenodd" fill="rgb(195,207,217)"/><path d=" M 200.711 894.757 C 200.711 894.196 200.256 893.741 199.694 893.741 L 180.45 893.741 C 179.89 893.741 179.434 894.196 179.434 894.757 L 179.434 914.001 C 179.434 914.562 179.89 915.017 180.45 915.017 L 199.694 915.017 C 200.256 915.017 200.711 914.562 200.711 914.001 L 200.711 894.757 Z " fill-rule="evenodd" fill="rgb(195,207,217)"/><path d=" M 230.498 894.757 C 230.498 894.196 230.043 893.741 229.481 893.741 L 210.238 893.741 C 209.677 893.741 209.222 894.196 209.222 894.757 L 209.222 914.001 C 209.222 914.562 209.677 915.017 210.238 915.017 L 229.481 915.017 C 230.043 915.017 230.498 914.562 230.498 914.001 L 230.498 894.757 Z " fill-rule="evenodd" fill="rgb(195,207,217)"/><path d=" M 170.924 894.757 C 170.924 894.196 170.468 893.741 169.907 893.741 L 150.663 893.741 C 150.102 893.741 149.647 894.196 149.647 894.757 L 149.647 914.001 C 149.647 914.562 150.102 915.017 150.663 915.017 L 169.907 915.017 C 170.468 915.017 170.924 914.562 170.924 914.001 L 170.924 894.757 Z " fill-rule="evenodd" fill="rgb(195,207,217)"/><path d=" M 170.924 894.757 C 170.924 894.196 170.468 893.741 169.907 893.741 L 150.663 893.741 C 150.102 893.741 149.647 894.196 149.647 894.757 L 149.647 914.001 C 149.647 914.562 150.102 915.017 150.663 915.017 L 169.907 915.017 C 170.468 915.017 170.924 914.562 170.924 914.001 L 170.924 894.757 Z " fill-rule="evenodd" fill="rgb(195,207,217)"/><path d=" M 319.86 894.757 C 319.86 894.196 319.405 893.741 318.843 893.741 L 299.599 893.741 C 299.039 893.741 298.583 894.196 298.583 894.757 L 298.583 914.001 C 298.583 914.562 299.039 915.017 299.599 915.017 L 318.843 915.017 C 319.405 915.017 319.86 914.562 319.86 914.001 L 319.86 894.757 Z " fill-rule="evenodd" fill="rgb(195,207,217)"/><path d=" M 349.647 894.757 C 349.647 894.196 349.192 893.741 348.63 893.741 L 329.387 893.741 C 328.826 893.741 328.37 894.196 328.37 894.757 L 328.37 914.001 C 328.37 914.562 328.826 915.017 329.387 915.017 L 348.63 915.017 C 349.192 915.017 349.647 914.562 349.647 914.001 L 349.647 894.757 Z " fill-rule="evenodd" fill="rgb(195,207,217)"/><path d=" M 290.073 894.757 C 290.073 894.196 289.617 893.741 289.056 893.741 L 269.812 893.741 C 269.251 893.741 268.796 894.196 268.796 894.757 L 268.796 914.001 C 268.796 914.562 269.251 915.017 269.812 915.017 L 289.056 915.017 C 289.617 915.017 290.073 914.562 290.073 914.001 L 290.073 894.757 Z " fill-rule="evenodd" fill="rgb(195,207,217)"/><path d=" M 290.073 894.757 C 290.073 894.196 289.617 893.741 289.056 893.741 L 269.812 893.741 C 269.251 893.741 268.796 894.196 268.796 894.757 L 268.796 914.001 C 268.796 914.562 269.251 915.017 269.812 915.017 L 289.056 915.017 C 289.617 915.017 290.073 914.562 290.073 914.001 L 290.073 894.757 Z " fill-rule="evenodd" fill="rgb(195,207,217)"/><path d=" M 319.86 864.544 C 319.86 863.983 319.405 863.528 318.843 863.528 L 299.599 863.528 C 299.039 863.528 298.583 863.983 298.583 864.544 L 298.583 883.788 C 298.583 884.349 299.039 884.804 299.599 884.804 L 318.843 884.804 C 319.405 884.804 319.86 884.349 319.86 883.788 L 319.86 864.544 Z " fill-rule="evenodd" fill="rgb(195,207,217)"/><path d=" M 349.647 864.544 C 349.647 863.983 349.192 863.528 348.63 863.528 L 329.387 863.528 C 328.826 863.528 328.37 863.983 328.37 864.544 L 328.37 883.788 C 328.37 884.349 328.826 884.804 329.387 884.804 L 348.63 884.804 C 349.192 884.804 349.647 884.349 349.647 883.788 L 349.647 864.544 Z " fill-rule="evenodd" fill="rgb(195,207,217)"/><path d=" M 290.073 864.544 C 290.073 863.983 289.617 863.528 289.056 863.528 L 269.812 863.528 C 269.251 863.528 268.796 863.983 268.796 864.544 L 268.796 883.788 C 268.796 884.349 269.251 884.804 269.812 884.804 L 289.056 884.804 C 289.617 884.804 290.073 884.349 290.073 883.788 L 290.073 864.544 Z " fill-rule="evenodd" fill="rgb(195,207,217)"/><path d=" M 290.073 864.544 C 290.073 863.983 289.617 863.528 289.056 863.528 L 269.812 863.528 C 269.251 863.528 268.796 863.983 268.796 864.544 L 268.796 883.788 C 268.796 884.349 269.251 884.804 269.812 884.804 L 289.056 884.804 C 289.617 884.804 290.073 884.349 290.073 883.788 L 290.073 864.544 Z " fill-rule="evenodd" fill="rgb(195,207,217)"/><rect x="151.707" y="931.188" width="80.851" height="47" transform="matrix(1,0,0,1,0,0)" fill="rgb(91,141,183)"/><path d=" M 178.425 969.208 L 181.989 969.208 L 183.177 956.668 L 177.237 956.668 L 178.425 969.208 Z " fill="rgb(255,255,255)"/><path d=" M 174.927 958.647 L 177.567 959.968 L 182.847 959.968 L 185.487 958.647 L 185.487 952.708 C 185.487 949.791 183.123 947.428 180.207 947.428 C 177.291 947.428 174.927 949.791 174.927 952.708 L 174.927 958.647 Z " fill="rgb(255,255,255)"/><rect x="176.247" y="956.668" width="7.92" height="4.62" transform="matrix(1,0,0,1,0,0)" fill="rgb(255,255,255)"/><rect x="163.707" y="938.188" width="33" height="33" transform="matrix(-1,0,0,-1,360.415,1909.375)" fill="none"/><circle vector-effect="non-scaling-stroke" cx="180.20733163957388" cy="942.8075" r="3.299999999999983" fill="rgb(255,255,255)"/><path d=" M 173.968 945.746 C 173.968 945.746 175.665 945.993 176.558 945.099 C 177.452 944.205 177.206 942.509 177.206 942.509 C 177.206 942.509 175.509 942.262 174.616 943.157 C 173.722 944.05 173.968 945.746 173.968 945.746 Z " fill="rgb(255,255,255)"/><rect x="188.92" y="938.351" width="33" height="33" transform="matrix(-1,0,0,-1,410.84,1909.701)" fill="none"/><circle vector-effect="non-scaling-stroke" cx="205.42009822485338" cy="942.970620365177" r="3.3000000000000114" fill="rgb(255,255,255)"/><path d=" M 206.08 947.63 L 206.08 948.911 L 204.76 948.911 L 204.76 947.63 C 201.79 947.958 199.48 950.474 199.48 953.531 L 199.48 959.471 L 201.78 960.391 L 202.252 969.371 L 208.588 969.371 L 209.061 960.391 L 211.36 959.471 L 211.36 953.531 C 211.36 950.474 209.05 947.958 206.08 947.63 Z  M 206.08 956.171 L 204.76 956.171 L 204.76 949.571 L 206.08 949.571 L 206.08 956.171 Z " fill="rgb(255,255,255)"/><line x1="192.133" y1="938.188" x2="192.133" y2="971.024" vector-effect="non-scaling-stroke" stroke-width="1" stroke="rgb(255,255,255)" stroke-linejoin="miter" stroke-linecap="square" stroke-miterlimit="3"/><rect x="271.207" y="931.188" width="80.851" height="47" transform="matrix(1,0,0,1,0,0)" fill="rgb(91,141,183)"/><path d=" M 325.34 969.208 L 321.776 969.208 L 320.588 956.668 L 326.528 956.668 L 325.34 969.208 Z " fill="rgb(255,255,255)"/><path d=" M 328.838 958.647 L 326.198 959.968 L 320.918 959.968 L 318.278 958.647 L 318.278 952.708 C 318.278 949.791 320.642 947.428 323.558 947.428 C 326.474 947.428 328.838 949.791 328.838 952.708 L 328.838 958.647 Z " fill="rgb(255,255,255)"/><rect x="319.598" y="956.668" width="7.92" height="4.62" transform="matrix(1,0,0,1,0,0)" fill="rgb(255,255,255)"/><rect x="307.058" y="938.188" width="33" height="33" transform="matrix(-1,0,0,-1,647.117,1909.375)" fill="none"/><circle vector-effect="non-scaling-stroke" cx="323.55839344783465" cy="942.8075" r="3.3000000000000114" fill="rgb(255,255,255)"/><path d=" M 329.797 945.746 C 329.797 945.746 328.101 945.993 327.208 945.099 C 326.313 944.205 326.56 942.509 326.56 942.509 C 326.56 942.509 328.256 942.262 329.15 943.157 C 330.044 944.05 329.797 945.746 329.797 945.746 Z " fill="rgb(255,255,255)"/><rect x="281.846" y="938.351" width="33" height="33" transform="matrix(-1,0,0,-1,596.691,1909.701)" fill="none"/><circle vector-effect="non-scaling-stroke" cx="298.345626862555" cy="942.970620365177" r="3.3000000000000114" fill="rgb(255,255,255)"/><path d=" M 297.686 947.63 L 297.686 948.911 L 299.006 948.911 L 299.006 947.63 C 301.976 947.958 304.286 950.474 304.286 953.531 L 304.286 959.471 L 301.986 960.391 L 301.514 969.371 L 295.178 969.371 L 294.705 960.391 L 292.406 959.471 L 292.406 953.531 C 292.406 950.474 294.716 947.958 297.686 947.63 Z  M 297.686 956.171 L 299.006 956.171 L 299.006 949.571 L 297.686 949.571 L 297.686 956.171 Z " fill="rgb(255,255,255)"/><line x1="311.633" y1="938.188" x2="311.633" y2="971.024" vector-effect="non-scaling-stroke" stroke-width="1" stroke="rgb(255,255,255)" stroke-linejoin="miter" stroke-linecap="square" stroke-miterlimit="3"/><text transform="matrix(1,0,0,1,238.494,667.624)" style="font-family:'Roboto';font-weight:700;font-size:18px;font-style:normal;fill:#000000;stroke:none;">12</text><text transform="matrix(1,0,0,1,238.494,701.624)" style="font-family:'Roboto';font-weight:700;font-size:18px;font-style:normal;fill:#000000;stroke:none;">13</text><text transform="matrix(1,0,0,1,238.494,731.624)" style="font-family:'Roboto';font-weight:700;font-size:18px;font-style:normal;fill:#000000;stroke:none;">14</text><text transform="matrix(1,0,0,1,238.494,760.29)" style="font-family:'Roboto';font-weight:700;font-size:18px;font-style:normal;fill:#000000;stroke:none;">15</text><text transform="matrix(1,0,0,1,238.494,790.957)" style="font-family:'Roboto';font-weight:700;font-size:18px;font-style:normal;fill:#000000;stroke:none;">16</text><text transform="matrix(1,0,0,1,239.049,821.099)" style="font-family:'Roboto';font-weight:700;font-size:18px;font-style:normal;fill:#000000;stroke:none;">17</text><text transform="matrix(1,0,0,1,239.049,851.099)" style="font-family:'Roboto';font-weight:700;font-size:18px;font-style:normal;fill:#000000;stroke:none;">18</text><text transform="matrix(1,0,0,1,239.049,881.099)" style="font-family:'Roboto';font-weight:700;font-size:18px;font-style:normal;fill:#000000;stroke:none;">19</text><text transform="matrix(1,0,0,1,240.556,911.099)" style="font-family:'Roboto';font-weight:700;font-size:18px;font-style:normal;fill:#000000;stroke:none;">20</text><path d=" M 352.058 1017.187 L 151.707 1017.187 L 151.707 1045.204 C 151.707 1064.592 193.578 1104.187 245.155 1104.187 L 251.883 1104.187 C 307.17 1104.187 352.058 1065.99 352.058 1045.204 L 352.058 1017.187 Z " fill-rule="evenodd" fill="rgb(91,141,183)"/><path d=" M 250.377 1044.563 C 241.485 1044.563 234.252 1051.796 234.252 1060.688 C 234.252 1069.579 241.485 1076.813 250.377 1076.813 C 259.268 1076.813 266.502 1069.579 266.502 1060.688 C 266.502 1051.796 259.268 1044.563 250.377 1044.563 Z  M 248.248 1060.688 C 248.248 1062.107 249.087 1065.332 249.087 1068.428 C 249.087 1071.523 247.99 1072.298 247.152 1072.298 C 246.313 1072.298 245.217 1071.717 245.217 1068.428 C 245.217 1065.138 246.055 1062.107 246.055 1060.688 C 246.055 1059.268 243.282 1059.785 243.282 1056.173 C 243.282 1052.948 243.798 1049.723 243.798 1049.723 C 243.798 1049.723 244.147 1049.408 245.217 1049.218 L 245.217 1055.528 C 245.217 1055.884 245.505 1056.173 245.862 1056.173 C 246.218 1056.173 246.507 1055.884 246.507 1055.528 L 246.507 1049.142 C 246.507 1049.123 246.498 1049.107 246.496 1049.088 C 246.932 1049.071 247.369 1049.075 247.805 1049.101 C 247.804 1049.116 247.797 1049.128 247.797 1049.142 L 247.797 1055.528 C 247.797 1055.884 248.085 1056.173 248.442 1056.173 C 248.798 1056.173 249.087 1055.884 249.087 1055.528 L 249.087 1049.257 C 250.053 1049.448 250.441 1049.723 250.441 1049.723 C 250.441 1049.723 251.022 1054.044 251.022 1056.173 C 251.022 1059.849 248.248 1059.268 248.248 1060.688 Z  M 256.182 1067.783 C 256.182 1069.718 255.859 1072.298 254.892 1072.298 C 253.924 1072.298 253.602 1070.878 253.602 1067.783 L 253.602 1049.078 C 256.891 1050.69 257.472 1054.109 257.472 1055.785 C 257.472 1058.623 255.537 1061.01 255.537 1062.88 C 255.537 1063.977 256.182 1065.203 256.182 1067.783 Z " fill="rgb(255,255,255)"/><path d=" M 201.557 371.353 C 201.557 370.792 201.101 370.337 200.54 370.337 L 181.296 370.337 C 180.735 370.337 180.28 370.792 180.28 371.353 L 180.28 390.597 C 180.28 391.158 180.735 391.613 181.296 391.613 L 200.54 391.613 C 201.101 391.613 201.557 391.158 201.557 390.597 L 201.557 371.353 Z " fill-rule="evenodd" fill="rgb(195,207,217)"/><path d=" M 231.344 371.353 C 231.344 370.792 230.889 370.337 230.327 370.337 L 211.084 370.337 C 210.523 370.337 210.067 370.792 210.067 371.353 L 210.067 390.597 C 210.067 391.158 210.523 391.613 211.084 391.613 L 230.327 391.613 C 230.889 391.613 231.344 391.158 231.344 390.597 L 231.344 371.353 Z " fill-rule="evenodd" fill="rgb(195,207,217)"/><path d=" M 171.77 371.353 C 171.77 370.792 171.314 370.337 170.753 370.337 L 151.509 370.337 C 150.948 370.337 150.493 370.792 150.493 371.353 L 150.493 390.597 C 150.493 391.158 150.948 391.613 151.509 391.613 L 170.753 391.613 C 171.314 391.613 171.77 391.158 171.77 390.597 L 171.77 371.353 Z " fill-rule="evenodd" fill="rgb(195,207,217)"/><path d=" M 171.77 371.353 C 171.77 370.792 171.314 370.337 170.753 370.337 L 151.509 370.337 C 150.948 370.337 150.493 370.792 150.493 371.353 L 150.493 390.597 C 150.493 391.158 150.948 391.613 151.509 391.613 L 170.753 391.613 C 171.314 391.613 171.77 391.158 171.77 390.597 L 171.77 371.353 Z " fill-rule="evenodd" fill="rgb(195,207,217)"/><path d=" M 201.557 401.14 C 201.557 400.579 201.101 400.124 200.54 400.124 L 181.296 400.124 C 180.735 400.124 180.28 400.579 180.28 401.14 L 180.28 420.384 C 180.28 420.945 180.735 421.4 181.296 421.4 L 200.54 421.4 C 201.101 421.4 201.557 420.945 201.557 420.384 L 201.557 401.14 Z " fill-rule="evenodd" fill="rgb(195,207,217)"/><path d=" M 231.344 401.14 C 231.344 400.579 230.889 400.124 230.327 400.124 L 211.084 400.124 C 210.523 400.124 210.067 400.579 210.067 401.14 L 210.067 420.384 C 210.067 420.945 210.523 421.4 211.084 421.4 L 230.327 421.4 C 230.889 421.4 231.344 420.945 231.344 420.384 L 231.344 401.14 Z " fill-rule="evenodd" fill="rgb(195,207,217)"/><path d=" M 171.77 401.14 C 171.77 400.579 171.314 400.124 170.753 400.124 L 151.509 400.124 C 150.948 400.124 150.493 400.579 150.493 401.14 L 150.493 420.384 C 150.493 420.945 150.948 421.4 151.509 421.4 L 170.753 421.4 C 171.314 421.4 171.77 420.945 171.77 420.384 L 171.77 401.14 Z " fill-rule="evenodd" fill="rgb(195,207,217)"/><path d=" M 171.77 401.14 C 171.77 400.579 171.314 400.124 170.753 400.124 L 151.509 400.124 C 150.948 400.124 150.493 400.579 150.493 401.14 L 150.493 420.384 C 150.493 420.945 150.948 421.4 151.509 421.4 L 170.753 421.4 C 171.314 421.4 171.77 420.945 171.77 420.384 L 171.77 401.14 Z " fill-rule="evenodd" fill="rgb(195,207,217)"/><path d=" M 231.344 252.796 C 231.344 251.908 230.623 251.188 229.734 251.188 L 199.265 251.188 C 198.377 251.188 197.656 251.908 197.656 252.796 L 197.656 283.266 C 197.656 284.154 198.377 284.875 199.265 284.875 L 229.734 284.875 C 230.623 284.875 231.344 284.154 231.344 283.266 L 231.344 252.796 Z " fill-rule="evenodd" fill="rgb(195,207,217)"/><path d=" M 184.181 252.796 C 184.181 251.908 183.46 251.188 182.571 251.188 L 152.102 251.188 C 151.214 251.188 150.493 251.908 150.493 252.796 L 150.493 283.266 C 150.493 284.154 151.214 284.875 152.102 284.875 L 182.571 284.875 C 183.46 284.875 184.181 284.154 184.181 283.266 L 184.181 252.796 Z " fill-rule="evenodd" fill="rgb(195,207,217)"/><path d=" M 184.181 252.796 C 184.181 251.908 183.46 251.188 182.571 251.188 L 152.102 251.188 C 151.214 251.188 150.493 251.908 150.493 252.796 L 150.493 283.266 C 150.493 284.154 151.214 284.875 152.102 284.875 L 182.571 284.875 C 183.46 284.875 184.181 284.154 184.181 283.266 L 184.181 252.796 Z " fill-rule="evenodd" fill="rgb(195,207,217)"/><path d=" M 231.344 299.96 C 231.344 299.072 230.623 298.351 229.734 298.351 L 199.265 298.351 C 198.377 298.351 197.656 299.072 197.656 299.96 L 197.656 330.429 C 197.656 331.317 198.377 332.038 199.265 332.038 L 229.734 332.038 C 230.623 332.038 231.344 331.317 231.344 330.429 L 231.344 299.96 Z " fill-rule="evenodd" fill="rgb(195,207,217)"/><path d=" M 184.181 299.96 C 184.181 299.072 183.46 298.351 182.571 298.351 L 152.102 298.351 C 151.214 298.351 150.493 299.072 150.493 299.96 L 150.493 330.429 C 150.493 331.317 151.214 332.038 152.102 332.038 L 182.571 332.038 C 183.46 332.038 184.181 331.317 184.181 330.429 L 184.181 299.96 Z " fill-rule="evenodd" fill="rgb(195,207,217)"/><path d=" M 184.181 299.96 C 184.181 299.072 183.46 298.351 182.571 298.351 L 152.102 298.351 C 151.214 298.351 150.493 299.072 150.493 299.96 L 150.493 330.429 C 150.493 331.317 151.214 332.038 152.102 332.038 L 182.571 332.038 C 183.46 332.038 184.181 331.317 184.181 330.429 L 184.181 299.96 Z " fill-rule="evenodd" fill="rgb(195,207,217)"/><path d=" M 350.493 252.796 C 350.493 251.908 349.772 251.188 348.883 251.188 L 318.414 251.188 C 317.526 251.188 316.805 251.908 316.805 252.796 L 316.805 283.266 C 316.805 284.154 317.526 284.875 318.414 284.875 L 348.883 284.875 C 349.772 284.875 350.493 284.154 350.493 283.266 L 350.493 252.796 Z " fill-rule="evenodd" fill="rgb(195,207,217)"/><path d=" M 303.33 252.796 C 303.33 251.908 302.609 251.188 301.72 251.188 L 271.251 251.188 C 270.363 251.188 269.642 251.908 269.642 252.796 L 269.642 283.266 C 269.642 284.154 270.363 284.875 271.251 284.875 L 301.72 284.875 C 302.609 284.875 303.33 284.154 303.33 283.266 L 303.33 252.796 Z " fill-rule="evenodd" fill="rgb(195,207,217)"/><path d=" M 303.33 252.796 C 303.33 251.908 302.609 251.188 301.72 251.188 L 271.251 251.188 C 270.363 251.188 269.642 251.908 269.642 252.796 L 269.642 283.266 C 269.642 284.154 270.363 284.875 271.251 284.875 L 301.72 284.875 C 302.609 284.875 303.33 284.154 303.33 283.266 L 303.33 252.796 Z " fill-rule="evenodd" fill="rgb(195,207,217)"/><path d=" M 350.493 299.96 C 350.493 299.072 349.772 298.351 348.883 298.351 L 318.414 298.351 C 317.526 298.351 316.805 299.072 316.805 299.96 L 316.805 330.429 C 316.805 331.317 317.526 332.038 318.414 332.038 L 348.883 332.038 C 349.772 332.038 350.493 331.317 350.493 330.429 L 350.493 299.96 Z " fill-rule="evenodd" fill="rgb(195,207,217)"/><path d=" M 303.33 299.96 C 303.33 299.072 302.609 298.351 301.72 298.351 L 271.251 298.351 C 270.363 298.351 269.642 299.072 269.642 299.96 L 269.642 330.429 C 269.642 331.317 270.363 332.038 271.251 332.038 L 301.72 332.038 C 302.609 332.038 303.33 331.317 303.33 330.429 L 303.33 299.96 Z " fill-rule="evenodd" fill="rgb(195,207,217)"/><path d=" M 303.33 299.96 C 303.33 299.072 302.609 298.351 301.72 298.351 L 271.251 298.351 C 270.363 298.351 269.642 299.072 269.642 299.96 L 269.642 330.429 C 269.642 331.317 270.363 332.038 271.251 332.038 L 301.72 332.038 C 302.609 332.038 303.33 331.317 303.33 330.429 L 303.33 299.96 Z " fill-rule="evenodd" fill="rgb(195,207,217)"/><path d=" M 201.557 430.927 C 201.557 430.367 201.101 429.911 200.54 429.911 L 181.296 429.911 C 180.735 429.911 180.28 430.367 180.28 430.927 L 180.28 450.171 C 180.28 450.732 180.735 451.187 181.296 451.187 L 200.54 451.187 C 201.101 451.187 201.557 450.732 201.557 450.171 L 201.557 430.927 Z " fill-rule="evenodd" fill="rgb(195,207,217)"/><path d=" M 231.344 430.927 C 231.344 430.367 230.889 429.911 230.327 429.911 L 211.084 429.911 C 210.523 429.911 210.067 430.367 210.067 430.927 L 210.067 450.171 C 210.067 450.732 210.523 451.187 211.084 451.187 L 230.327 451.187 C 230.889 451.187 231.344 450.732 231.344 450.171 L 231.344 430.927 Z " fill-rule="evenodd" fill="rgb(195,207,217)"/><path d=" M 171.77 430.927 C 171.77 430.367 171.314 429.911 170.753 429.911 L 151.509 429.911 C 150.948 429.911 150.493 430.367 150.493 430.927 L 150.493 450.171 C 150.493 450.732 150.948 451.187 151.509 451.187 L 170.753 451.187 C 171.314 451.187 171.77 450.732 171.77 450.171 L 171.77 430.927 Z " fill-rule="evenodd" fill="rgb(195,207,217)"/><path d=" M 171.77 430.927 C 171.77 430.367 171.314 429.911 170.753 429.911 L 151.509 429.911 C 150.948 429.911 150.493 430.367 150.493 430.927 L 150.493 450.171 C 150.493 450.732 150.948 451.187 151.509 451.187 L 170.753 451.187 C 171.314 451.187 171.77 450.732 171.77 450.171 L 171.77 430.927 Z " fill-rule="evenodd" fill="rgb(195,207,217)"/><path d=" M 320.706 371.353 C 320.706 370.792 320.25 370.337 319.689 370.337 L 300.445 370.337 C 299.884 370.337 299.429 370.792 299.429 371.353 L 299.429 390.597 C 299.429 391.158 299.884 391.613 300.445 391.613 L 319.689 391.613 C 320.25 391.613 320.706 391.158 320.706 390.597 L 320.706 371.353 Z " fill-rule="evenodd" fill="rgb(195,207,217)"/><path d=" M 350.493 371.353 C 350.493 370.792 350.038 370.337 349.476 370.337 L 330.232 370.337 C 329.672 370.337 329.216 370.792 329.216 371.353 L 329.216 390.597 C 329.216 391.158 329.672 391.613 330.232 391.613 L 349.476 391.613 C 350.038 391.613 350.493 391.158 350.493 390.597 L 350.493 371.353 Z " fill-rule="evenodd" fill="rgb(195,207,217)"/><path d=" M 290.918 371.353 C 290.918 370.792 290.463 370.337 289.901 370.337 L 270.658 370.337 C 270.097 370.337 269.642 370.792 269.642 371.353 L 269.642 390.597 C 269.642 391.158 270.097 391.613 270.658 391.613 L 289.901 391.613 C 290.463 391.613 290.918 391.158 290.918 390.597 L 290.918 371.353 Z " fill-rule="evenodd" fill="rgb(195,207,217)"/><path d=" M 290.918 371.353 C 290.918 370.792 290.463 370.337 289.901 370.337 L 270.658 370.337 C 270.097 370.337 269.642 370.792 269.642 371.353 L 269.642 390.597 C 269.642 391.158 270.097 391.613 270.658 391.613 L 289.901 391.613 C 290.463 391.613 290.918 391.158 290.918 390.597 L 290.918 371.353 Z " fill-rule="evenodd" fill="rgb(195,207,217)"/><path d=" M 320.706 401.14 C 320.706 400.579 320.25 400.124 319.689 400.124 L 300.445 400.124 C 299.884 400.124 299.429 400.579 299.429 401.14 L 299.429 420.384 C 299.429 420.945 299.884 421.4 300.445 421.4 L 319.689 421.4 C 320.25 421.4 320.706 420.945 320.706 420.384 L 320.706 401.14 Z " fill-rule="evenodd" fill="rgb(195,207,217)"/><path d=" M 350.493 401.14 C 350.493 400.579 350.038 400.124 349.476 400.124 L 330.232 400.124 C 329.672 400.124 329.216 400.579 329.216 401.14 L 329.216 420.384 C 329.216 420.945 329.672 421.4 330.232 421.4 L 349.476 421.4 C 350.038 421.4 350.493 420.945 350.493 420.384 L 350.493 401.14 Z " fill-rule="evenodd" fill="rgb(195,207,217)"/><path d=" M 290.918 401.14 C 290.918 400.579 290.463 400.124 289.901 400.124 L 270.658 400.124 C 270.097 400.124 269.642 400.579 269.642 401.14 L 269.642 420.384 C 269.642 420.945 270.097 421.4 270.658 421.4 L 289.901 421.4 C 290.463 421.4 290.918 420.945 290.918 420.384 L 290.918 401.14 Z " fill-rule="evenodd" fill="rgb(195,207,217)"/><path d=" M 290.918 401.14 C 290.918 400.579 290.463 400.124 289.901 400.124 L 270.658 400.124 C 270.097 400.124 269.642 400.579 269.642 401.14 L 269.642 420.384 C 269.642 420.945 270.097 421.4 270.658 421.4 L 289.901 421.4 C 290.463 421.4 290.918 420.945 290.918 420.384 L 290.918 401.14 Z " fill-rule="evenodd" fill="rgb(195,207,217)"/><path d=" M 320.706 430.927 C 320.706 430.367 320.25 429.911 319.689 429.911 L 300.445 429.911 C 299.884 429.911 299.429 430.367 299.429 430.927 L 299.429 450.171 C 299.429 450.732 299.884 451.187 300.445 451.187 L 319.689 451.187 C 320.25 451.187 320.706 450.732 320.706 450.171 L 320.706 430.927 Z " fill-rule="evenodd" fill="rgb(195,207,217)"/><path d=" M 350.493 430.927 C 350.493 430.367 350.038 429.911 349.476 429.911 L 330.232 429.911 C 329.672 429.911 329.216 430.367 329.216 430.927 L 329.216 450.171 C 329.216 450.732 329.672 451.187 330.232 451.187 L 349.476 451.187 C 350.038 451.187 350.493 450.732 350.493 450.171 L 350.493 430.927 Z " fill-rule="evenodd" fill="rgb(195,207,217)"/><path d=" M 290.918 430.927 C 290.918 430.367 290.463 429.911 289.901 429.911 L 270.658 429.911 C 270.097 429.911 269.642 430.367 269.642 430.927 L 269.642 450.171 C 269.642 450.732 270.097 451.187 270.658 451.187 L 289.901 451.187 C 290.463 451.187 290.918 450.732 290.918 450.171 L 290.918 430.927 Z " fill-rule="evenodd" fill="rgb(195,207,217)"/><path d=" M 290.918 430.927 C 290.918 430.367 290.463 429.911 289.901 429.911 L 270.658 429.911 C 270.097 429.911 269.642 430.367 269.642 430.927 L 269.642 450.171 C 269.642 450.732 270.097 451.187 270.658 451.187 L 289.901 451.187 C 290.463 451.187 290.918 450.732 290.918 450.171 L 290.918 430.927 Z " fill-rule="evenodd" fill="rgb(195,207,217)"/><path d=" M 201.557 490.502 C 201.557 489.941 201.101 489.486 200.54 489.486 L 181.296 489.486 C 180.735 489.486 180.28 489.941 180.28 490.502 L 180.28 509.746 C 180.28 510.307 180.735 510.762 181.296 510.762 L 200.54 510.762 C 201.101 510.762 201.557 510.307 201.557 509.746 L 201.557 490.502 Z " fill-rule="evenodd" fill="rgb(195,207,217)"/><path d=" M 231.344 490.502 C 231.344 489.941 230.889 489.486 230.327 489.486 L 211.084 489.486 C 210.523 489.486 210.067 489.941 210.067 490.502 L 210.067 509.746 C 210.067 510.307 210.523 510.762 211.084 510.762 L 230.327 510.762 C 230.889 510.762 231.344 510.307 231.344 509.746 L 231.344 490.502 Z " fill-rule="evenodd" fill="rgb(195,207,217)"/><path d=" M 171.77 490.502 C 171.77 489.941 171.314 489.486 170.753 489.486 L 151.509 489.486 C 150.948 489.486 150.493 489.941 150.493 490.502 L 150.493 509.746 C 150.493 510.307 150.948 510.762 151.509 510.762 L 170.753 510.762 C 171.314 510.762 171.77 510.307 171.77 509.746 L 171.77 490.502 Z " fill-rule="evenodd" fill="rgb(195,207,217)"/><path d=" M 171.77 490.502 C 171.77 489.941 171.314 489.486 170.753 489.486 L 151.509 489.486 C 150.948 489.486 150.493 489.941 150.493 490.502 L 150.493 509.746 C 150.493 510.307 150.948 510.762 151.509 510.762 L 170.753 510.762 C 171.314 510.762 171.77 510.307 171.77 509.746 L 171.77 490.502 Z " fill-rule="evenodd" fill="rgb(195,207,217)"/><path d=" M 201.557 520.289 C 201.557 519.728 201.101 519.273 200.54 519.273 L 181.296 519.273 C 180.735 519.273 180.28 519.728 180.28 520.289 L 180.28 539.533 C 180.28 540.094 180.735 540.549 181.296 540.549 L 200.54 540.549 C 201.101 540.549 201.557 540.094 201.557 539.533 L 201.557 520.289 Z " fill-rule="evenodd" fill="rgb(195,207,217)"/><path d=" M 231.344 520.289 C 231.344 519.728 230.889 519.273 230.327 519.273 L 211.084 519.273 C 210.523 519.273 210.067 519.728 210.067 520.289 L 210.067 539.533 C 210.067 540.094 210.523 540.549 211.084 540.549 L 230.327 540.549 C 230.889 540.549 231.344 540.094 231.344 539.533 L 231.344 520.289 Z " fill-rule="evenodd" fill="rgb(195,207,217)"/><path d=" M 171.77 520.289 C 171.77 519.728 171.314 519.273 170.753 519.273 L 151.509 519.273 C 150.948 519.273 150.493 519.728 150.493 520.289 L 150.493 539.533 C 150.493 540.094 150.948 540.549 151.509 540.549 L 170.753 540.549 C 171.314 540.549 171.77 540.094 171.77 539.533 L 171.77 520.289 Z " fill-rule="evenodd" fill="rgb(195,207,217)"/><path d=" M 171.77 520.289 C 171.77 519.728 171.314 519.273 170.753 519.273 L 151.509 519.273 C 150.948 519.273 150.493 519.728 150.493 520.289 L 150.493 539.533 C 150.493 540.094 150.948 540.549 151.509 540.549 L 170.753 540.549 C 171.314 540.549 171.77 540.094 171.77 539.533 L 171.77 520.289 Z " fill-rule="evenodd" fill="rgb(195,207,217)"/><path d=" M 201.557 550.076 C 201.557 549.516 201.101 549.06 200.54 549.06 L 181.296 549.06 C 180.735 549.06 180.28 549.516 180.28 550.076 L 180.28 569.32 C 180.28 569.881 180.735 570.336 181.296 570.336 L 200.54 570.336 C 201.101 570.336 201.557 569.881 201.557 569.32 L 201.557 550.076 Z " fill-rule="evenodd" fill="rgb(195,207,217)"/><path d=" M 231.344 550.076 C 231.344 549.516 230.889 549.06 230.327 549.06 L 211.084 549.06 C 210.523 549.06 210.067 549.516 210.067 550.076 L 210.067 569.32 C 210.067 569.881 210.523 570.336 211.084 570.336 L 230.327 570.336 C 230.889 570.336 231.344 569.881 231.344 569.32 L 231.344 550.076 Z " fill-rule="evenodd" fill="rgb(195,207,217)"/><path d=" M 201.557 577.704 C 201.557 577.143 201.101 576.688 200.54 576.688 L 181.296 576.688 C 180.735 576.688 180.28 577.143 180.28 577.704 L 180.28 596.948 C 180.28 597.508 180.735 597.964 181.296 597.964 L 200.54 597.964 C 201.101 597.964 201.557 597.508 201.557 596.948 L 201.557 577.704 Z " fill-rule="evenodd" fill="rgb(195,207,217)"/><path d=" M 231.344 577.704 C 231.344 577.143 230.889 576.688 230.327 576.688 L 211.084 576.688 C 210.523 576.688 210.067 577.143 210.067 577.704 L 210.067 596.948 C 210.067 597.508 210.523 597.964 211.084 597.964 L 230.327 597.964 C 230.889 597.964 231.344 597.508 231.344 596.948 L 231.344 577.704 Z " fill-rule="evenodd" fill="rgb(195,207,217)"/><path d=" M 171.77 550.076 C 171.77 549.516 171.314 549.06 170.753 549.06 L 151.509 549.06 C 150.948 549.06 150.493 549.516 150.493 550.076 L 150.493 569.32 C 150.493 569.881 150.948 570.336 151.509 570.336 L 170.753 570.336 C 171.314 570.336 171.77 569.881 171.77 569.32 L 171.77 550.076 Z " fill-rule="evenodd" fill="rgb(195,207,217)"/><path d=" M 171.77 550.076 C 171.77 549.516 171.314 549.06 170.753 549.06 L 151.509 549.06 C 150.948 549.06 150.493 549.516 150.493 550.076 L 150.493 569.32 C 150.493 569.881 150.948 570.336 151.509 570.336 L 170.753 570.336 C 171.314 570.336 171.77 569.881 171.77 569.32 L 171.77 550.076 Z " fill-rule="evenodd" fill="rgb(195,207,217)"/><path d=" M 201.557 621.991 C 201.557 621.43 201.101 620.975 200.54 620.975 L 181.296 620.975 C 180.735 620.975 180.28 621.43 180.28 621.991 L 180.28 641.235 C 180.28 641.796 180.735 642.251 181.296 642.251 L 200.54 642.251 C 201.101 642.251 201.557 641.796 201.557 641.235 L 201.557 621.991 Z " fill-rule="evenodd" fill="rgb(195,207,217)"/><path d=" M 231.344 621.991 C 231.344 621.43 230.889 620.975 230.327 620.975 L 211.084 620.975 C 210.523 620.975 210.067 621.43 210.067 621.991 L 210.067 641.235 C 210.067 641.796 210.523 642.251 211.084 642.251 L 230.327 642.251 C 230.889 642.251 231.344 641.796 231.344 641.235 L 231.344 621.991 Z " fill-rule="evenodd" fill="rgb(195,207,217)"/><path d=" M 171.77 621.991 C 171.77 621.43 171.314 620.975 170.753 620.975 L 151.509 620.975 C 150.948 620.975 150.493 621.43 150.493 621.991 L 150.493 641.235 C 150.493 641.796 150.948 642.251 151.509 642.251 L 170.753 642.251 C 171.314 642.251 171.77 641.796 171.77 641.235 L 171.77 621.991 Z " fill-rule="evenodd" fill="rgb(195,207,217)"/><path d=" M 171.77 621.991 C 171.77 621.43 171.314 620.975 170.753 620.975 L 151.509 620.975 C 150.948 620.975 150.493 621.43 150.493 621.991 L 150.493 641.235 C 150.493 641.796 150.948 642.251 151.509 642.251 L 170.753 642.251 C 171.314 642.251 171.77 641.796 171.77 641.235 L 171.77 621.991 Z " fill-rule="evenodd" fill="rgb(195,207,217)"/><path d=" M 201.557 460.715 C 201.557 460.154 201.101 459.699 200.54 459.699 L 181.296 459.699 C 180.735 459.699 180.28 460.154 180.28 460.715 L 180.28 479.959 C 180.28 480.519 180.735 480.975 181.296 480.975 L 200.54 480.975 C 201.101 480.975 201.557 480.519 201.557 479.959 L 201.557 460.715 Z " fill-rule="evenodd" fill="rgb(195,207,217)"/><path d=" M 231.344 460.715 C 231.344 460.154 230.889 459.699 230.327 459.699 L 211.084 459.699 C 210.523 459.699 210.067 460.154 210.067 460.715 L 210.067 479.959 C 210.067 480.519 210.523 480.975 211.084 480.975 L 230.327 480.975 C 230.889 480.975 231.344 480.519 231.344 479.959 L 231.344 460.715 Z " fill-rule="evenodd" fill="rgb(195,207,217)"/><path d=" M 171.77 460.715 C 171.77 460.154 171.314 459.699 170.753 459.699 L 151.509 459.699 C 150.948 459.699 150.493 460.154 150.493 460.715 L 150.493 479.959 C 150.493 480.519 150.948 480.975 151.509 480.975 L 170.753 480.975 C 171.314 480.975 171.77 480.519 171.77 479.959 L 171.77 460.715 Z " fill-rule="evenodd" fill="rgb(195,207,217)"/><path d=" M 171.77 460.715 C 171.77 460.154 171.314 459.699 170.753 459.699 L 151.509 459.699 C 150.948 459.699 150.493 460.154 150.493 460.715 L 150.493 479.959 C 150.493 480.519 150.948 480.975 151.509 480.975 L 170.753 480.975 C 171.314 480.975 171.77 480.519 171.77 479.959 L 171.77 460.715 Z " fill-rule="evenodd" fill="rgb(195,207,217)"/><path d=" M 320.706 490.502 C 320.706 489.941 320.25 489.486 319.689 489.486 L 300.445 489.486 C 299.884 489.486 299.429 489.941 299.429 490.502 L 299.429 509.746 C 299.429 510.307 299.884 510.762 300.445 510.762 L 319.689 510.762 C 320.25 510.762 320.706 510.307 320.706 509.746 L 320.706 490.502 Z " fill-rule="evenodd" fill="rgb(195,207,217)"/><path d=" M 350.493 490.502 C 350.493 489.941 350.038 489.486 349.476 489.486 L 330.232 489.486 C 329.672 489.486 329.216 489.941 329.216 490.502 L 329.216 509.746 C 329.216 510.307 329.672 510.762 330.232 510.762 L 349.476 510.762 C 350.038 510.762 350.493 510.307 350.493 509.746 L 350.493 490.502 Z " fill-rule="evenodd" fill="rgb(195,207,217)"/><path d=" M 290.918 490.502 C 290.918 489.941 290.463 489.486 289.901 489.486 L 270.658 489.486 C 270.097 489.486 269.642 489.941 269.642 490.502 L 269.642 509.746 C 269.642 510.307 270.097 510.762 270.658 510.762 L 289.901 510.762 C 290.463 510.762 290.918 510.307 290.918 509.746 L 290.918 490.502 Z " fill-rule="evenodd" fill="rgb(195,207,217)"/><path d=" M 290.918 490.502 C 290.918 489.941 290.463 489.486 289.901 489.486 L 270.658 489.486 C 270.097 489.486 269.642 489.941 269.642 490.502 L 269.642 509.746 C 269.642 510.307 270.097 510.762 270.658 510.762 L 289.901 510.762 C 290.463 510.762 290.918 510.307 290.918 509.746 L 290.918 490.502 Z " fill-rule="evenodd" fill="rgb(195,207,217)"/><path d=" M 320.706 520.289 C 320.706 519.728 320.25 519.273 319.689 519.273 L 300.445 519.273 C 299.884 519.273 299.429 519.728 299.429 520.289 L 299.429 539.533 C 299.429 540.094 299.884 540.549 300.445 540.549 L 319.689 540.549 C 320.25 540.549 320.706 540.094 320.706 539.533 L 320.706 520.289 Z " fill-rule="evenodd" fill="rgb(195,207,217)"/><path d=" M 350.493 520.289 C 350.493 519.728 350.038 519.273 349.476 519.273 L 330.232 519.273 C 329.672 519.273 329.216 519.728 329.216 520.289 L 329.216 539.533 C 329.216 540.094 329.672 540.549 330.232 540.549 L 349.476 540.549 C 350.038 540.549 350.493 540.094 350.493 539.533 L 350.493 520.289 Z " fill-rule="evenodd" fill="rgb(195,207,217)"/><path d=" M 290.918 520.289 C 290.918 519.728 290.463 519.273 289.901 519.273 L 270.658 519.273 C 270.097 519.273 269.642 519.728 269.642 520.289 L 269.642 539.533 C 269.642 540.094 270.097 540.549 270.658 540.549 L 289.901 540.549 C 290.463 540.549 290.918 540.094 290.918 539.533 L 290.918 520.289 Z " fill-rule="evenodd" fill="rgb(195,207,217)"/><path d=" M 290.918 520.289 C 290.918 519.728 290.463 519.273 289.901 519.273 L 270.658 519.273 C 270.097 519.273 269.642 519.728 269.642 520.289 L 269.642 539.533 C 269.642 540.094 270.097 540.549 270.658 540.549 L 289.901 540.549 C 290.463 540.549 290.918 540.094 290.918 539.533 L 290.918 520.289 Z " fill-rule="evenodd" fill="rgb(195,207,217)"/><path d=" M 320.706 550.076 C 320.706 549.516 320.25 549.06 319.689 549.06 L 300.445 549.06 C 299.884 549.06 299.429 549.516 299.429 550.076 L 299.429 569.32 C 299.429 569.881 299.884 570.336 300.445 570.336 L 319.689 570.336 C 320.25 570.336 320.706 569.881 320.706 569.32 L 320.706 550.076 Z " fill-rule="evenodd" fill="rgb(195,207,217)"/><path d=" M 350.493 550.076 C 350.493 549.516 350.038 549.06 349.476 549.06 L 330.232 549.06 C 329.672 549.06 329.216 549.516 329.216 550.076 L 329.216 569.32 C 329.216 569.881 329.672 570.336 330.232 570.336 L 349.476 570.336 C 350.038 570.336 350.493 569.881 350.493 569.32 L 350.493 550.076 Z " fill-rule="evenodd" fill="rgb(195,207,217)"/><path d=" M 290.918 550.076 C 290.918 549.516 290.463 549.06 289.901 549.06 L 270.658 549.06 C 270.097 549.06 269.642 549.516 269.642 550.076 L 269.642 569.32 C 269.642 569.881 270.097 570.336 270.658 570.336 L 289.901 570.336 C 290.463 570.336 290.918 569.881 290.918 569.32 L 290.918 550.076 Z " fill-rule="evenodd" fill="rgb(195,207,217)"/><path d=" M 290.918 550.076 C 290.918 549.516 290.463 549.06 289.901 549.06 L 270.658 549.06 C 270.097 549.06 269.642 549.516 269.642 550.076 L 269.642 569.32 C 269.642 569.881 270.097 570.336 270.658 570.336 L 289.901 570.336 C 290.463 570.336 290.918 569.881 290.918 569.32 L 290.918 550.076 Z " fill-rule="evenodd" fill="rgb(195,207,217)"/><path d=" M 320.706 577.704 C 320.706 577.143 320.25 576.687 319.689 576.687 L 300.445 576.687 C 299.884 576.687 299.429 577.143 299.429 577.704 L 299.429 596.948 C 299.429 597.508 299.884 597.964 300.445 597.964 L 319.689 597.964 C 320.25 597.964 320.706 597.508 320.706 596.948 L 320.706 577.704 Z " fill-rule="evenodd" fill="rgb(195,207,217)"/><path d=" M 290.918 577.704 C 290.918 577.143 290.463 576.688 289.901 576.688 L 270.658 576.688 C 270.097 576.688 269.642 577.143 269.642 577.704 L 269.642 596.948 C 269.642 597.508 270.097 597.964 270.658 597.964 L 289.901 597.964 C 290.463 597.964 290.918 597.508 290.918 596.948 L 290.918 577.704 Z " fill-rule="evenodd" fill="rgb(195,207,217)"/><path d=" M 290.918 577.704 C 290.918 577.143 290.463 576.688 289.901 576.688 L 270.658 576.688 C 270.097 576.688 269.642 577.143 269.642 577.704 L 269.642 596.948 C 269.642 597.508 270.097 597.964 270.658 597.964 L 289.901 597.964 C 290.463 597.964 290.918 597.508 290.918 596.948 L 290.918 577.704 Z " fill-rule="evenodd" fill="rgb(195,207,217)"/><path d=" M 320.706 621.991 C 320.706 621.43 320.25 620.975 319.689 620.975 L 300.445 620.975 C 299.884 620.975 299.429 621.43 299.429 621.991 L 299.429 641.235 C 299.429 641.796 299.884 642.251 300.445 642.251 L 319.689 642.251 C 320.25 642.251 320.706 641.796 320.706 641.235 L 320.706 621.991 Z " fill-rule="evenodd" fill="rgb(195,207,217)"/><path d=" M 350.493 621.991 C 350.493 621.43 350.038 620.975 349.476 620.975 L 330.232 620.975 C 329.672 620.975 329.216 621.43 329.216 621.991 L 329.216 641.235 C 329.216 641.796 329.672 642.251 330.232 642.251 L 349.476 642.251 C 350.038 642.251 350.493 641.796 350.493 641.235 L 350.493 621.991 Z " fill-rule="evenodd" fill="rgb(195,207,217)"/><path d=" M 290.918 621.991 C 290.918 621.43 290.463 620.975 289.901 620.975 L 270.658 620.975 C 270.097 620.975 269.642 621.43 269.642 621.991 L 269.642 641.235 C 269.642 641.796 270.097 642.251 270.658 642.251 L 289.901 642.251 C 290.463 642.251 290.918 641.796 290.918 641.235 L 290.918 621.991 Z " fill-rule="evenodd" fill="rgb(195,207,217)"/><path d=" M 290.918 621.991 C 290.918 621.43 290.463 620.975 289.901 620.975 L 270.658 620.975 C 270.097 620.975 269.642 621.43 269.642 621.991 L 269.642 641.235 C 269.642 641.796 270.097 642.251 270.658 642.251 L 289.901 642.251 C 290.463 642.251 290.918 641.796 290.918 641.235 L 290.918 621.991 Z " fill-rule="evenodd" fill="rgb(195,207,217)"/><path d=" M 320.706 460.715 C 320.706 460.154 320.25 459.699 319.689 459.699 L 300.445 459.699 C 299.884 459.699 299.429 460.154 299.429 460.715 L 299.429 479.959 C 299.429 480.519 299.884 480.975 300.445 480.975 L 319.689 480.975 C 320.25 480.975 320.706 480.519 320.706 479.959 L 320.706 460.715 Z " fill-rule="evenodd" fill="rgb(195,207,217)"/><path d=" M 350.493 460.715 C 350.493 460.154 350.038 459.699 349.476 459.699 L 330.232 459.699 C 329.672 459.699 329.216 460.154 329.216 460.715 L 329.216 479.959 C 329.216 480.519 329.672 480.975 330.232 480.975 L 349.476 480.975 C 350.038 480.975 350.493 480.519 350.493 479.959 L 350.493 460.715 Z " fill-rule="evenodd" fill="rgb(195,207,217)"/><path d=" M 290.918 460.715 C 290.918 460.154 290.463 459.699 289.901 459.699 L 270.658 459.699 C 270.097 459.699 269.642 460.154 269.642 460.715 L 269.642 479.959 C 269.642 480.519 270.097 480.975 270.658 480.975 L 289.901 480.975 C 290.463 480.975 290.918 480.519 290.918 479.959 L 290.918 460.715 Z " fill-rule="evenodd" fill="rgb(195,207,217)"/><path d=" M 290.918 460.715 C 290.918 460.154 290.463 459.699 289.901 459.699 L 270.658 459.699 C 270.097 459.699 269.642 460.154 269.642 460.715 L 269.642 479.959 C 269.642 480.519 270.097 480.975 270.658 480.975 L 289.901 480.975 C 290.463 480.975 290.918 480.519 290.918 479.959 L 290.918 460.715 Z " fill-rule="evenodd" fill="rgb(195,207,217)"/><rect x="269.993" y="176.188" width="80.851" height="47" transform="matrix(1,0,0,1,0,0)" fill="rgb(91,141,183)"/><rect x="150.493" y="95.813" width="80.851" height="47" transform="matrix(1,0,0,1,0,0)" fill="rgb(91,141,183)"/><path d=" M 177.211 133.832 L 180.775 133.832 L 181.963 121.292 L 176.023 121.292 L 177.211 133.832 Z " fill="rgb(255,255,255)"/><path d=" M 173.713 123.272 L 176.353 124.592 L 181.633 124.592 L 184.273 123.272 L 184.273 117.332 C 184.273 114.416 181.909 112.053 178.993 112.053 C 176.077 112.053 173.713 114.416 173.713 117.332 L 173.713 123.272 Z " fill="rgb(255,255,255)"/><rect x="175.033" y="121.293" width="7.92" height="4.62" transform="matrix(1,0,0,1,0,0)" fill="rgb(255,255,255)"/><rect x="162.493" y="102.813" width="33" height="33" transform="matrix(-1,0,0,-1,357.986,238.625)" fill="none"/><circle vector-effect="non-scaling-stroke" cx="178.99290813719327" cy="107.43250000000018" r="3.299999999999983" fill="rgb(255,255,255)"/><path d=" M 172.754 110.371 C 172.754 110.371 174.45 110.618 175.344 109.724 C 176.238 108.83 175.991 107.134 175.991 107.134 C 175.991 107.134 174.295 106.887 173.401 107.782 C 172.508 108.675 172.754 110.371 172.754 110.371 Z " fill="rgb(255,255,255)"/><rect x="187.706" y="102.976" width="33" height="33" transform="matrix(-1,0,0,-1,408.411,238.951)" fill="none"/><circle vector-effect="non-scaling-stroke" cx="204.20567472247282" cy="107.5956203651769" r="3.3000000000000114" fill="rgb(255,255,255)"/><path d=" M 204.866 112.255 L 204.866 113.536 L 203.546 113.536 L 203.546 112.255 C 200.576 112.583 198.266 115.099 198.266 118.156 L 198.266 124.096 L 200.565 125.016 L 201.038 133.996 L 207.374 133.996 L 207.846 125.016 L 210.146 124.096 L 210.146 118.156 C 210.146 115.099 207.836 112.583 204.866 112.255 Z  M 204.866 120.796 L 203.546 120.796 L 203.546 114.196 L 204.866 114.196 L 204.866 120.796 Z " fill="rgb(255,255,255)"/><line x1="190.918" y1="102.813" x2="190.918" y2="135.649" vector-effect="non-scaling-stroke" stroke-width="1" stroke="rgb(255,255,255)" stroke-linejoin="miter" stroke-linecap="square" stroke-miterlimit="3"/><text transform="matrix(1,0,0,1,154.076,637.765)" style="font-family:'Roboto';font-weight:700;font-size:18px;font-style:normal;fill:#000000;stroke:none;">A</text><text transform="matrix(1,0,0,1,154.076,387.127)" style="font-family:'Roboto';font-weight:700;font-size:18px;font-style:normal;fill:#000000;stroke:none;">A</text><text transform="matrix(1,0,0,1,160.281,274.183)" style="font-family:'Roboto';font-weight:700;font-size:18px;font-style:normal;fill:#000000;stroke:none;">A</text><text transform="matrix(1,0,0,1,207.756,274.183)" style="font-family:'Roboto';font-weight:700;font-size:18px;font-style:normal;fill:#000000;stroke:none;">B</text><text transform="matrix(1,0,0,1,245.17,273.517)" style="font-family:'Roboto';font-weight:700;font-size:18px;font-style:normal;fill:#000000;stroke:none;">1</text><text transform="matrix(1,0,0,1,244.503,320.183)" style="font-family:'Roboto';font-weight:700;font-size:18px;font-style:normal;fill:#000000;stroke:none;">2</text><text transform="matrix(1,0,0,1,243.836,386.85)" style="font-family:'Roboto';font-weight:700;font-size:18px;font-style:normal;fill:#000000;stroke:none;">3</text><text transform="matrix(1,0,0,1,243.836,418.183)" style="font-family:'Roboto';font-weight:700;font-size:18px;font-style:normal;fill:#000000;stroke:none;">4</text><text transform="matrix(1,0,0,1,243.836,446.85)" style="font-family:'Roboto';font-weight:700;font-size:18px;font-style:normal;fill:#000000;stroke:none;">5</text><text transform="matrix(1,0,0,1,243.836,476.85)" style="font-family:'Roboto';font-weight:700;font-size:18px;font-style:normal;fill:#000000;stroke:none;">6</text><text transform="matrix(1,0,0,1,244.503,506.85)" style="font-family:'Roboto';font-weight:700;font-size:18px;font-style:normal;fill:#000000;stroke:none;">7</text><text transform="matrix(1,0,0,1,244.503,536.85)" style="font-family:'Roboto';font-weight:700;font-size:18px;font-style:normal;fill:#000000;stroke:none;">8</text><text transform="matrix(1,0,0,1,244.503,566.85)" style="font-family:'Roboto';font-weight:700;font-size:18px;font-style:normal;fill:#000000;stroke:none;">9</text><text transform="matrix(1,0,0,1,238.34,593.478)" style="font-family:'Roboto';font-weight:700;font-size:18px;font-style:normal;fill:#000000;stroke:none;">10</text><text transform="matrix(1,0,0,1,239.895,637.765)" style="font-family:'Roboto';font-weight:700;font-size:18px;font-style:normal;fill:#000000;stroke:none;">11</text><text transform="matrix(1,0,0,1,279.597,274.183)" style="font-family:'Roboto';font-weight:700;font-size:18px;font-style:normal;fill:#000000;stroke:none;">C</text><text transform="matrix(1,0,0,1,326.8,274.183)" style="font-family:'Roboto';font-weight:700;font-size:18px;font-style:normal;fill:#000000;stroke:none;">D</text><text transform="matrix(1,0,0,1,183.675,387.127)" style="font-family:'Roboto';font-weight:700;font-size:18px;font-style:normal;fill:#000000;stroke:none;">B</text><text transform="matrix(1,0,0,1,213.317,387.127)" style="font-family:'Roboto';font-weight:700;font-size:18px;font-style:normal;fill:#000000;stroke:none;">C</text><text transform="matrix(1,0,0,1,272.931,387.127)" style="font-family:'Roboto';font-weight:700;font-size:18px;font-style:normal;fill:#000000;stroke:none;">D</text><text transform="matrix(1,0,0,1,303.356,387.127)" style="font-family:'Roboto';font-weight:700;font-size:18px;font-style:normal;fill:#000000;stroke:none;">E</text><text transform="matrix(1,0,0,1,332.424,387.127)" style="font-family:'Roboto';font-weight:700;font-size:18px;font-style:normal;fill:#000000;stroke:none;">F</text><text transform="matrix(1,0,0,1,183.675,637.765)" style="font-family:'Roboto';font-weight:700;font-size:18px;font-style:normal;fill:#000000;stroke:none;">B</text><text transform="matrix(1,0,0,1,213.317,637.765)" style="font-family:'Roboto';font-weight:700;font-size:18px;font-style:normal;fill:#000000;stroke:none;">C</text><text transform="matrix(1,0,0,1,332.424,637.674)" style="font-family:'Roboto';font-weight:700;font-size:18px;font-style:normal;fill:#000000;stroke:none;">F</text><text transform="matrix(1,0,0,1,272.931,637.674)" style="font-family:'Roboto';font-weight:700;font-size:18px;font-style:normal;fill:#000000;stroke:none;">D</text><line x1="150.493" y1="352.188" x2="233.404" y2="352.188" vector-effect="non-scaling-stroke" stroke-width="1" stroke="rgb(0,0,0)" stroke-linejoin="miter" stroke-linecap="square" stroke-miterlimit="3"/><text transform="matrix(1,0,0,1,303.005,637.674)" style="font-family:'Roboto';font-weight:700;font-size:18px;font-style:normal;fill:#000000;stroke:none;">E</text><path d=" M 725.234 732.183 C 756.862 742.834 781.597 756.148 801.872 766.799 C 836.744 785.438 844.448 787.34 850.936 780.493 C 867.966 762.234 888.646 737.128 900 723.434 C 811.198 650.779 496.538 463.624 356.238 380.698 L 356.238 694.524 C 432.47 677.026 645.352 705.175 725.234 732.183 Z  M -225.234 732.564 C -190 718 67.53 677.406 143.762 695.285 L 143.762 381.459 C 3.462 464.004 -311.198 651.539 -400 724.195 C -388.646 737.889 -367.966 762.995 -350.936 781.254 C -344.448 788.101 -336.744 785.819 -301.871 767.56 C -281.597 756.528 -256.862 743.215 -225.234 732.564 L -225.234 732.564 Z " fill="rgb(224,225,227)"/><rect x="375.797" y="368.262" width="41.696" height="547.322" transform="matrix(1,0,0,1,0,0)" fill="rgb(255,0,0)"/><rect x="375.797" y="239.188" width="41.696" height="109" transform="matrix(1,0,0,1,0,0)" fill="rgb(176,203,247)"/><text transform="matrix(0,1,-1,0,389.523,251.188)" style="font-family:'Roboto';font-weight:700;font-size:21px;font-style:normal;fill:#ffffff;stroke:none;">БИЗНЕС</text><text transform="matrix(0,1,-1,0,389.523,598.686)" style="font-family:'Roboto';font-weight:700;font-size:21px;font-style:normal;fill:#ffffff;stroke:none;">ЭКОНОМ</text><line x1="269.642" y1="352.188" x2="350.844" y2="352.188" vector-effect="non-scaling-stroke" stroke-width="1" stroke="rgb(0,0,0)" stroke-linejoin="miter" stroke-linecap="square" stroke-miterlimit="3"/><line x1="150.493" y1="352.188" x2="231.344" y2="352.188" vector-effect="non-scaling-stroke" stroke-width="1" stroke="rgb(0,0,0)" stroke-linejoin="miter" stroke-linecap="square" stroke-miterlimit="3"/><line x1="150.493" y1="223.188" x2="231.344" y2="223.188" vector-effect="non-scaling-stroke" stroke-width="1" stroke="rgb(0,0,0)" stroke-linejoin="miter" stroke-linecap="square" stroke-miterlimit="3"/><path d=" M 310.221 183.188 C 301.33 183.188 294.096 190.421 294.096 199.313 C 294.096 208.204 301.33 215.438 310.221 215.438 C 319.112 215.438 326.346 208.204 326.346 199.313 C 326.346 190.421 319.112 183.188 310.221 183.188 Z  M 308.092 199.313 C 308.092 200.732 308.931 203.957 308.931 207.053 C 308.931 210.148 307.834 210.923 306.996 210.923 C 306.157 210.923 305.061 210.342 305.061 207.053 C 305.061 203.763 305.899 200.732 305.899 199.313 C 305.899 197.893 303.126 198.41 303.126 194.798 C 303.126 191.573 303.642 188.348 303.642 188.348 C 303.642 188.348 303.991 188.033 305.061 187.843 L 305.061 194.153 C 305.061 194.509 305.35 194.798 305.706 194.798 C 306.062 194.798 306.351 194.509 306.351 194.153 L 306.351 187.767 C 306.351 187.748 306.342 187.732 306.34 187.713 C 306.776 187.696 307.213 187.7 307.649 187.726 C 307.648 187.741 307.641 187.753 307.641 187.767 L 307.641 194.153 C 307.641 194.509 307.93 194.798 308.286 194.798 C 308.642 194.798 308.931 194.509 308.931 194.153 L 308.931 187.882 C 309.897 188.073 310.285 188.348 310.285 188.348 C 310.285 188.348 310.866 192.669 310.866 194.798 C 310.866 198.474 308.092 197.893 308.092 199.313 Z  M 316.026 206.408 C 316.026 208.343 315.703 210.923 314.736 210.923 C 313.768 210.923 313.446 209.503 313.446 206.408 L 313.446 187.703 C 316.735 189.315 317.316 192.734 317.316 194.41 C 317.316 197.248 315.381 199.635 315.381 201.505 C 315.381 202.602 316.026 203.828 316.026 206.408 Z " fill="rgb(255,255,255)"/><rect x="269.993" y="96.188" width="80.851" height="47" transform="matrix(1,0,0,1,0,0)" fill="rgb(91,141,183)"/><path d=" M 310.221 103.188 C 301.33 103.188 294.096 110.421 294.096 119.313 C 294.096 128.204 301.33 135.438 310.221 135.438 C 319.112 135.438 326.346 128.204 326.346 119.313 C 326.346 110.421 319.112 103.188 310.221 103.188 Z  M 308.092 119.313 C 308.092 120.732 308.931 123.957 308.931 127.053 C 308.931 130.148 307.834 130.923 306.996 130.923 C 306.157 130.923 305.061 130.342 305.061 127.053 C 305.061 123.763 305.899 120.732 305.899 119.313 C 305.899 117.893 303.126 118.41 303.126 114.798 C 303.126 111.573 303.642 108.348 303.642 108.348 C 303.642 108.348 303.991 108.033 305.061 107.843 L 305.061 114.153 C 305.061 114.509 305.35 114.798 305.706 114.798 C 306.062 114.798 306.351 114.509 306.351 114.153 L 306.351 107.767 C 306.351 107.748 306.342 107.732 306.34 107.713 C 306.776 107.696 307.213 107.7 307.649 107.726 C 307.648 107.741 307.641 107.753 307.641 107.767 L 307.641 114.153 C 307.641 114.509 307.93 114.798 308.286 114.798 C 308.642 114.798 308.931 114.509 308.931 114.153 L 308.931 107.882 C 309.897 108.073 310.285 108.348 310.285 108.348 C 310.285 108.348 310.866 112.669 310.866 114.798 C 310.866 118.474 308.092 117.893 308.092 119.313 Z  M 316.026 126.408 C 316.026 128.343 315.703 130.923 314.736 130.923 C 313.768 130.923 313.446 129.503 313.446 126.408 L 313.446 107.703 C 316.735 109.315 317.316 112.734 317.316 114.41 C 317.316 117.248 315.381 119.635 315.381 121.505 C 315.381 122.602 316.026 123.828 316.026 126.408 Z " fill="rgb(255,255,255)"/></g></g></g></g></svg>