<svg xmlns="http://www.w3.org/2000/svg" width="90" height="131" style=""><rect id="backgroundrect" width="100%" height="100%" x="0" y="0" fill="none" stroke="none"/>  <g class="currentLayer" style=""><title>Layer 1</title><g fill="#2D6592" fill-rule="evenodd" id="svg_1" class=""> <path d="M1 131c.098-22.277.098-35.28 0-41.017C.418 55.558 12.798 27.509 32.705 7.709 36.672 3.394 40.452 1 43 1h4c2.404 0 6.25 2.437 10.274 6.687C77.229 27.693 89.58 55.66 89 89.983c-.094 5.738-.094 18.74 0 41.017h1c-.094-22.272-.094-35.272 0-41 .672-39.685-16.06-67.02-32-83-4.234-4.473-8.274-7-11-7h-4c-2.87 0-6.856 2.49-11 7C16.035 22.879-.672 50.237 0 90c.098 5.728.098 18.728 0 41h1z" fill-rule="nonzero" id="svg_2"/> <path d="M42.748 34.478c.098 0 .345.288.359.806l-.04 11.657c.017.572-.252.964-.35.973l-.467-.005c-5.75 0-10.95.81-15.946 2.481a.121.121 0 0 1-.036.014c-.076-.05-.22-.37-.13-.887a9397.12 9397.12 0 0 1 1.75-10.208c.086-.482.333-.851.521-.932 4.457-1.918 9.28-3.228 14.339-3.9zM20.975 42.13c-2.356 6.47-5.686 18.84-6.27 21.127a1.36 1.36 0 0 1-.22.481 33.23 33.23 0 0 0-2.212 3.292c2.1-9.78 6.61-21.478 7.48-23.518a.429.429 0 0 1 .086-.153c.296-.351.7-.801 1.136-1.23zm3.291-2.537c.256-.24.512-.469.767-.707l.324.418c-.7 3.918-1.396 7.853-2.11 11.847a373.901 373.901 0 0 0-1.867 3.958 183.11 183.11 0 0 0-3.401 4.57c1.714-6.767 5.398-17.74 6.287-20.086zm23.316 8.317l-.418.004c-.152-.009-.422-.391-.404-.995l-.045-11.617c.018-.535.265-.824.368-.824 5.058.671 9.878 1.982 14.334 3.895.193.081.44.455.521.937l1.75 10.207c.09.532-.058.851-.13.887h.01l-.09-.027c-4.879-1.639-10.228-2.467-15.896-2.467zm21.273-5.78c.494.49.93.986 1.14 1.234.031.04.05.063.085.153.054.126 5.17 12.729 7.477 23.522a33.51 33.51 0 0 0-2.208-3.296 1.503 1.503 0 0 1-.229-.491c-.485-1.914-3.864-14.535-6.265-21.122zm-4.383-2.827l.319-.415c.26.234.52.469.772.707.884 2.333 4.555 13.252 6.283 20.073a199.12 199.12 0 0 0-3.406-4.574c-.615-1.333-1.24-2.644-1.872-3.985-.695-3.954-1.396-7.889-2.096-11.806z" id="svg_3"/> <path d="M84.5 132H84h.5zm0 0H84h.5zm1.5-1V90.652a16 16 0 0 0-3.728-10.266C74.24 70.785 61.79 66 45 66c-16.789 0-29.24 4.785-37.272 14.386A16 16 0 0 0 4 90.652V131h1V90.652a15 15 0 0 1 3.495-9.624C16.318 71.676 28.486 67 45 67c16.514 0 28.682 4.676 36.505 14.028A15 15 0 0 1 85 90.652V131h1z" fill-rule="nonzero" id="svg_4"/> </g><rect fill="#4a90d6" fill-opacity="1" stroke="#222222" stroke-opacity="1" stroke-width="2" stroke-dasharray="none" stroke-linejoin="round" stroke-linecap="butt" stroke-dashoffset="" fill-rule="nonzero" opacity="1" x="22.545454502105713" y="114.63636469841003" width="0" height="0" style="color: rgb(0, 0, 0);" class="" id="svg_34"/><rect fill="#6767e7" stroke="none" stroke-width="2" stroke-linejoin="round" stroke-dashoffset="" fill-rule="nonzero" x="8.751867771148682" y="111.84704279899597" width="5.944140434265137" height="6.090909004211426" style="color: rgb(0, 0, 0);" class="" fill-opacity="1" id="svg_35"/><rect fill="#6767e7" stroke="none" stroke-width="2" stroke-linejoin="round" stroke-dashoffset="" fill-rule="nonzero" x="15.842776775360107" y="111.84704279899597" width="5.944140434265137" height="6.090909004211426" style="color: rgb(0, 0, 0);" class="" fill-opacity="1" id="svg_36"/><rect fill="#6767e7" stroke="none" stroke-width="2" stroke-linejoin="round" stroke-dashoffset="" fill-rule="nonzero" x="23.115503787994385" y="111.84704279899597" width="5.944140434265137" height="6.090909004211426" style="color: rgb(0, 0, 0);" class="" fill-opacity="1" id="svg_37"/><rect fill="#6767e7" stroke="none" stroke-width="2" stroke-linejoin="round" stroke-dashoffset="" fill-rule="nonzero" x="35.11550569534302" y="112.02885890007019" width="5.944140434265137" height="6.090909004211426" style="color: rgb(0, 0, 0);" class="" fill-opacity="1" id="svg_38"/><rect fill="#6767e7" stroke="none" stroke-width="2" stroke-linejoin="round" stroke-dashoffset="" fill-rule="nonzero" x="42.38823366165161" y="111.84704279899597" width="5.944140434265137" height="6.090909004211426" style="color: rgb(0, 0, 0);" class="" fill-opacity="1" id="svg_39"/><rect fill="#6767e7" stroke="none" stroke-width="2" stroke-linejoin="round" stroke-dashoffset="" fill-rule="nonzero" x="50.02459764480591" y="111.84704279899597" width="5.944140434265137" height="6.090909004211426" style="color: rgb(0, 0, 0);" class="" fill-opacity="1" id="svg_40"/><rect fill="#6767e7" stroke="none" stroke-width="2" stroke-linejoin="round" stroke-dashoffset="" fill-rule="nonzero" x="70.75186586380005" y="111.84704279899597" width="5.944140434265137" height="6.090909004211426" style="color: rgb(0, 0, 0);" class="" fill-opacity="1" id="svg_41"/><rect fill="#6767e7" stroke="none" stroke-width="2" stroke-linejoin="round" stroke-dashoffset="" fill-rule="nonzero" x="63.2973256111145" y="111.84704279899597" width="5.944140434265137" height="6.090909004211426" style="color: rgb(0, 0, 0);" class="" fill-opacity="1" id="svg_42"/><rect fill="#6767e7" stroke="none" stroke-width="2" stroke-linejoin="round" stroke-dashoffset="" fill-rule="nonzero" x="78.02459383010864" y="111.84704279899597" width="5.944140434265137" height="6.090909004211426" style="color: rgb(0, 0, 0);" class="" fill-opacity="1" id="svg_43"/><rect fill="#4a90d6" fill-opacity="1" stroke="#222222" stroke-opacity="1" stroke-width="2" stroke-dasharray="none" stroke-linejoin="round" stroke-linecap="butt" stroke-dashoffset="" fill-rule="nonzero" opacity="1" x="22.89273691177368" y="120.06204676628113" width="0" height="0" style="color: rgb(0, 0, 0);" class="" id="svg_44"/><rect fill="#4a90d6" fill-opacity="1" stroke="#222222" stroke-opacity="1" stroke-width="2" stroke-dasharray="none" stroke-linejoin="round" stroke-linecap="butt" stroke-dashoffset="" fill-rule="nonzero" opacity="1" x="22.36363649368286" y="107.36363673210144" width="0" height="0" style="color: rgb(0, 0, 0);" class="" id="svg_45"/><rect fill="#6767e7" stroke="none" stroke-width="2" stroke-linejoin="round" stroke-dashoffset="" fill-rule="nonzero" x="8.57004976272583" y="104.57431483268738" width="5.944140434265137" height="6.090909004211426" style="color: rgb(0, 0, 0);" class="" fill-opacity="1" id="svg_46"/><rect fill="#6767e7" stroke="none" stroke-width="2" stroke-linejoin="round" stroke-dashoffset="" fill-rule="nonzero" x="15.660958766937256" y="104.57431483268738" width="5.944140434265137" height="6.090909004211426" style="color: rgb(0, 0, 0);" class="" fill-opacity="1" id="svg_47"/><rect fill="#6767e7" stroke="none" stroke-width="2" stroke-linejoin="round" stroke-dashoffset="" fill-rule="nonzero" x="22.933685779571533" y="104.57431483268738" width="5.944140434265137" height="6.090909004211426" style="color: rgb(0, 0, 0);" class="" fill-opacity="1" id="svg_48"/><rect fill="#6767e7" stroke="none" stroke-width="2" stroke-linejoin="round" stroke-dashoffset="" fill-rule="nonzero" x="34.93368577957153" y="104.7561309337616" width="5.944140434265137" height="6.090909004211426" style="color: rgb(0, 0, 0);" class="" fill-opacity="1" id="svg_49"/><rect fill="#6767e7" stroke="none" stroke-width="2" stroke-linejoin="round" stroke-dashoffset="" fill-rule="nonzero" x="42.20641374588013" y="104.57431483268738" width="5.944140434265137" height="6.090909004211426" style="color: rgb(0, 0, 0);" class="" fill-opacity="1" id="svg_50"/><rect fill="#6767e7" stroke="none" stroke-width="2" stroke-linejoin="round" stroke-dashoffset="" fill-rule="nonzero" x="49.842777729034424" y="104.57431483268738" width="5.944140434265137" height="6.090909004211426" style="color: rgb(0, 0, 0);" class="" fill-opacity="1" id="svg_51"/><rect fill="#6767e7" stroke="none" stroke-width="2" stroke-linejoin="round" stroke-dashoffset="" fill-rule="nonzero" x="70.57004976272583" y="104.57431483268738" width="5.944140434265137" height="6.090909004211426" style="color: rgb(0, 0, 0);" class="" fill-opacity="1" id="svg_52"/><rect fill="#6767e7" stroke="none" stroke-width="2" stroke-linejoin="round" stroke-dashoffset="" fill-rule="nonzero" x="63.11550569534302" y="104.57431483268738" width="5.944140434265137" height="6.090909004211426" style="color: rgb(0, 0, 0);" class="" fill-opacity="1" id="svg_53"/><rect fill="#6767e7" stroke="none" stroke-width="2" stroke-linejoin="round" stroke-dashoffset="" fill-rule="nonzero" x="77.84277772903442" y="104.57431483268738" width="5.944140434265137" height="6.090909004211426" style="color: rgb(0, 0, 0);" class="" fill-opacity="1" id="svg_54"/><rect fill="#4a90d6" fill-opacity="1" stroke="#222222" stroke-opacity="1" stroke-width="2" stroke-dasharray="none" stroke-linejoin="round" stroke-linecap="butt" stroke-dashoffset="" fill-rule="nonzero" opacity="1" x="22.18181800842285" y="100.2727279663086" width="0" height="0" style="color: rgb(0, 0, 0);" class="" id="svg_24"/><rect fill="#6767e7" stroke="none" stroke-width="2" stroke-linejoin="round" stroke-dashoffset="" fill-rule="nonzero" x="8.38823127746582" y="97.48340606689453" width="5.944140434265137" height="6.090909004211426" style="color: rgb(0, 0, 0);" class="" fill-opacity="1" id="svg_25"/><rect fill="#6767e7" stroke="none" stroke-width="2" stroke-linejoin="round" stroke-dashoffset="" fill-rule="nonzero" x="15.479140281677246" y="97.48340606689453" width="5.944140434265137" height="6.090909004211426" style="color: rgb(0, 0, 0);" class="" fill-opacity="1" id="svg_26"/><rect fill="#6767e7" stroke="none" stroke-width="2" stroke-linejoin="round" stroke-dashoffset="" fill-rule="nonzero" x="22.751867294311523" y="97.48340606689453" width="5.944140434265137" height="6.090909004211426" style="color: rgb(0, 0, 0);" class="" fill-opacity="1" id="svg_27"/><rect fill="#6767e7" stroke="none" stroke-width="2" stroke-linejoin="round" stroke-dashoffset="" fill-rule="nonzero" x="34.751869201660156" y="97.66522216796875" width="5.944140434265137" height="6.090909004211426" style="color: rgb(0, 0, 0);" class="" fill-opacity="1" id="svg_28"/><rect fill="#6767e7" stroke="none" stroke-width="2" stroke-linejoin="round" stroke-dashoffset="" fill-rule="nonzero" x="42.02459716796875" y="97.48340606689453" width="5.944140434265137" height="6.090909004211426" style="color: rgb(0, 0, 0);" class="" fill-opacity="1" id="svg_29"/><rect fill="#6767e7" stroke="none" stroke-width="2" stroke-linejoin="round" stroke-dashoffset="" fill-rule="nonzero" x="49.66096115112305" y="97.48340606689453" width="5.944140434265137" height="6.090909004211426" style="color: rgb(0, 0, 0);" class="" fill-opacity="1" id="svg_30"/><rect fill="#6767e7" stroke="none" stroke-width="2" stroke-linejoin="round" stroke-dashoffset="" fill-rule="nonzero" x="70.38822937011719" y="97.48340606689453" width="5.944140434265137" height="6.090909004211426" style="color: rgb(0, 0, 0);" class="" fill-opacity="1" id="svg_31"/><rect fill="#6767e7" stroke="none" stroke-width="2" stroke-linejoin="round" stroke-dashoffset="" fill-rule="nonzero" x="62.93368911743164" y="97.48340606689453" width="5.944140434265137" height="6.090909004211426" style="color: rgb(0, 0, 0);" class="" fill-opacity="1" id="svg_32"/><rect fill="#6767e7" stroke="none" stroke-width="2" stroke-linejoin="round" stroke-dashoffset="" fill-rule="nonzero" x="77.66095733642578" y="97.48340606689453" width="5.944140434265137" height="6.090909004211426" style="color: rgb(0, 0, 0);" class="" fill-opacity="1" id="svg_33"/><rect fill="#4a90d6" fill-opacity="1" stroke="#222222" stroke-opacity="1" stroke-width="2" stroke-dasharray="none" stroke-linejoin="round" stroke-linecap="butt" stroke-dashoffset="" fill-rule="nonzero" opacity="1" x="22.52910041809082" y="105.69841003417969" width="0" height="0" style="color: rgb(0, 0, 0);" class="" id="svg_20"/><rect fill="#4a90d6" fill-opacity="1" stroke="#222222" stroke-opacity="1" stroke-width="2" stroke-dasharray="none" stroke-linejoin="round" stroke-linecap="butt" stroke-dashoffset="" fill-rule="nonzero" opacity="1" id="svg_7" x="22" y="93" width="0" height="0" style="color: rgb(0, 0, 0);" class=""/><rect fill="#6767e7" stroke="none" stroke-width="2" stroke-linejoin="round" stroke-dashoffset="" fill-rule="nonzero" id="svg_6" x="8.206413269042969" y="90.21067810058594" width="5.944140434265137" height="6.090909004211426" style="color: rgb(0, 0, 0);" class="" fill-opacity="1"/><rect fill="#6767e7" stroke="none" stroke-width="2" stroke-linejoin="round" stroke-dashoffset="" fill-rule="nonzero" x="15.297322273254395" y="90.21067810058594" width="5.944140434265137" height="6.090909004211426" style="color: rgb(0, 0, 0);" class="" fill-opacity="1" id="svg_5"/><rect fill="#6767e7" stroke="none" stroke-width="2" stroke-linejoin="round" stroke-dashoffset="" fill-rule="nonzero" x="22.570049285888672" y="90.21067810058594" width="5.944140434265137" height="6.090909004211426" style="color: rgb(0, 0, 0);" class="" fill-opacity="1" id="svg_8"/><rect fill="#6767e7" stroke="none" stroke-width="2" stroke-linejoin="round" stroke-dashoffset="" fill-rule="nonzero" x="34.57004928588867" y="90.39249420166016" width="5.944140434265137" height="6.090909004211426" style="color: rgb(0, 0, 0);" class="" fill-opacity="1" id="svg_9"/><rect fill="#6767e7" stroke="none" stroke-width="2" stroke-linejoin="round" stroke-dashoffset="" fill-rule="nonzero" x="41.842777252197266" y="90.21067810058594" width="5.944140434265137" height="6.090909004211426" style="color: rgb(0, 0, 0);" class="" fill-opacity="1" id="svg_10"/><rect fill="#6767e7" stroke="none" stroke-width="2" stroke-linejoin="round" stroke-dashoffset="" fill-rule="nonzero" x="49.47914123535156" y="90.21067810058594" width="5.944140434265137" height="6.090909004211426" style="color: rgb(0, 0, 0);" class="" fill-opacity="1" id="svg_11"/><rect fill="#6767e7" stroke="none" stroke-width="2" stroke-linejoin="round" stroke-dashoffset="" fill-rule="nonzero" x="70.20641326904297" y="90.21067810058594" width="5.944140434265137" height="6.090909004211426" style="color: rgb(0, 0, 0);" class="" fill-opacity="1" id="svg_12"/><rect fill="#6767e7" stroke="none" stroke-width="2" stroke-linejoin="round" stroke-dashoffset="" fill-rule="nonzero" x="62.751869201660156" y="90.21067810058594" width="5.944140434265137" height="6.090909004211426" style="color: rgb(0, 0, 0);" class="" fill-opacity="1" id="svg_13"/><rect fill="#6767e7" stroke="none" stroke-width="2" stroke-linejoin="round" stroke-dashoffset="" fill-rule="nonzero" x="77.47914123535156" y="90.21067810058594" width="5.944140434265137" height="6.090909004211426" style="color: rgb(0, 0, 0);" class="" fill-opacity="1" id="svg_14"/></g></svg>